STARTFONT 2.1
FONT -FontForge-Hanalei-Book-R-Normal--28-280-72-72-P-141-ISO10646-1
SIZE 28 72 72
FONTBOUNDINGBOX 35 36 -1 -7
COMMENT "Generated by fontforge, http://fontforge.sourceforge.net"
COMMENT "Copyright (c) 2012 by Brian J. Bonislawsky DBA Astigmatic (AOETI) (astigma@astigmatic.com), with ReservedFont Name "Hanalei""
STARTPROPERTIES 39
FOUNDRY "FontForge"
FAMILY_NAME "Hanalei"
WEIGHT_NAME "Book"
SLANT "R"
SETWIDTH_NAME "Normal"
ADD_STYLE_NAME ""
PIXEL_SIZE 28
POINT_SIZE 280
RESOLUTION_X 72
RESOLUTION_Y 72
SPACING "P"
AVERAGE_WIDTH 141
CHARSET_REGISTRY "ISO10646"
CHARSET_ENCODING "1"
FONTNAME_REGISTRY ""
CHARSET_COLLECTIONS "ISO8859-2 ISO8859-9 ISO8859-4 ISO10646-1"
FONT_NAME "Hanalei-Regular"
FACE_NAME "Hanalei"
COPYRIGHT "Copyright (c) 2012 by Brian J. Bonislawsky DBA Astigmatic (AOETI) (astigma@astigmatic.com), with ReservedFont Name "Hanalei""
FONT_VERSION "1.000"
FONT_ASCENT 22
FONT_DESCENT 6
UNDERLINE_POSITION -4
UNDERLINE_THICKNESS 1
X_HEIGHT 18
CAP_HEIGHT 18
RAW_ASCENT 799
RAW_DESCENT 200
NORM_SPACE 6
RELATIVE_WEIGHT 40
RELATIVE_SETWIDTH 50
SUPERSCRIPT_X 0
SUPERSCRIPT_Y 13
SUPERSCRIPT_SIZE 18
SUBSCRIPT_X 0
SUBSCRIPT_Y 3
SUBSCRIPT_SIZE 18
AVG_LOWERCASE_WIDTH 150
AVG_UPPERCASE_WIDTH 148
ENDPROPERTIES
CHARS 366
STARTCHAR space
ENCODING 32
SWIDTH 200 0
DWIDTH 6 0
BBX 1 1 0 0
BITMAP
00
ENDCHAR
STARTCHAR exclam
ENCODING 33
SWIDTH 257 0
DWIDTH 7 0
BBX 5 19 1 0
BITMAP
F8
88
88
88
88
88
E8
88
88
88
88
88
88
70
00
F0
88
90
F0
ENDCHAR
STARTCHAR quotedbl
ENCODING 34
SWIDTH 476 0
DWIDTH 13 0
BBX 12 12 1 9
BITMAP
7080
8B20
8A20
8920
8920
FBE0
8A20
8A20
8A20
8A20
8A10
71E0
ENDCHAR
STARTCHAR numbersign
ENCODING 35
SWIDTH 1076 0
DWIDTH 30 0
BBX 28 20 1 0
BITMAP
301C0000
CE225FF0
46228210
4A2282F0
49228310
4922FF10
F4BA8890
86C28890
88A28890
48628FF0
4C628A10
8A22F210
F7DE8210
8A127FF0
89120000
890A3FC0
888E4040
888A4020
848A4020
787C3FC0
ENDCHAR
STARTCHAR dollar
ENCODING 36
SWIDTH 453 0
DWIDTH 13 0
BBX 11 26 1 -4
BITMAP
0E00
1100
1100
1100
11C0
1E20
7420
8420
83C0
8600
9C00
A600
C980
2860
1820
0420
1E60
E5A0
82E0
8100
8F00
7200
1200
1100
1300
0C00
ENDCHAR
STARTCHAR percent
ENCODING 37
SWIDTH 889 0
DWIDTH 25 0
BBX 23 19 1 0
BITMAP
FE0C00
E11200
919200
AE9200
A49200
A4A400
A4BC00
DCA400
84A5F8
7F2584
004A46
006A7A
005A52
004A52
009252
0093F2
009312
00D30E
0020FC
ENDCHAR
STARTCHAR ampersand
ENCODING 38
SWIDTH 627 0
DWIDTH 18 0
BBX 18 21 0 0
BITMAP
040000
0BF000
0E2E00
112100
113D00
10E200
08C200
084400
074800
045000
0C3000
122000
211100
237680
458840
878840
8A8980
F24600
82C200
8F4400
703800
ENDCHAR
STARTCHAR quotesingle
ENCODING 39
SWIDTH 246 0
DWIDTH 7 0
BBX 5 12 1 9
BITMAP
70
88
88
88
88
F8
88
88
88
88
88
70
ENDCHAR
STARTCHAR parenleft
ENCODING 40
SWIDTH 387 0
DWIDTH 11 0
BBX 11 23 0 -2
BITMAP
0780
0440
0840
0880
1100
3900
2600
4200
4400
8400
8800
8800
F400
4200
2100
1500
1880
0880
0840
0420
0220
0240
0180
ENDCHAR
STARTCHAR parenright
ENCODING 41
SWIDTH 386 0
DWIDTH 11 0
BBX 11 23 0 -2
BITMAP
3C00
4400
4400
2200
1100
1300
1480
0880
0440
0420
0220
0220
07E0
0840
1080
1D00
2300
4200
4400
8400
8800
4800
1000
ENDCHAR
STARTCHAR asterisk
ENCODING 42
SWIDTH 517 0
DWIDTH 14 0
BBX 13 13 1 7
BITMAP
0F00
0900
0500
C530
B7C8
8908
68F0
1880
1740
2540
4920
28A0
10C0
ENDCHAR
STARTCHAR plus
ENCODING 43
SWIDTH 458 0
DWIDTH 13 0
BBX 11 12 1 3
BITMAP
0E00
1100
1100
7F40
84A0
8220
8420
BFE0
5100
1100
1100
0E00
ENDCHAR
STARTCHAR comma
ENCODING 44
SWIDTH 228 0
DWIDTH 6 0
BBX 7 8 -1 -4
BITMAP
18
14
22
42
84
88
50
30
ENDCHAR
STARTCHAR hyphen
ENCODING 45
SWIDTH 465 0
DWIDTH 13 0
BBX 11 5 1 7
BITMAP
FFE0
8220
8220
8420
FFE0
ENDCHAR
STARTCHAR period
ENCODING 46
SWIDTH 202 0
DWIDTH 6 0
BBX 4 4 1 0
BITMAP
F0
90
90
F0
ENDCHAR
STARTCHAR slash
ENCODING 47
SWIDTH 453 0
DWIDTH 13 0
BBX 12 19 0 0
BITMAP
01E0
0110
0110
0220
0220
0640
05C0
0840
0880
0880
1100
1D00
2300
2200
4200
4400
8400
6400
1800
ENDCHAR
STARTCHAR zero
ENCODING 48
SWIDTH 646 0
DWIDTH 18 0
BBX 18 20 0 0
BITMAP
038000
026000
043000
084800
108400
1D4200
234E00
223100
441080
B40840
C80840
841C40
823280
634900
14CA00
098400
0E0800
021000
022000
01C000
ENDCHAR
STARTCHAR one
ENCODING 49
SWIDTH 400 0
DWIDTH 11 0
BBX 11 20 0 0
BITMAP
0400
0FE0
1440
6440
8440
8440
9C40
67C0
0440
0440
0440
0440
0440
07C0
0440
0440
0440
0440
0440
07C0
ENDCHAR
STARTCHAR two
ENCODING 50
SWIDTH 502 0
DWIDTH 14 0
BBX 14 19 0 0
BITMAP
0780
0940
10A0
2110
C308
8484
4848
30D8
0124
0208
0530
08A0
1040
6180
43B0
6548
5D08
4108
7DF8
ENDCHAR
STARTCHAR three
ENCODING 51
SWIDTH 456 0
DWIDTH 13 0
BBX 12 20 0 -1
BITMAP
7F80
4040
4060
4050
3F50
04A0
0A40
1380
2580
4880
3040
1830
0670
0790
7A10
8210
82F0
8700
5800
2000
ENDCHAR
STARTCHAR four
ENCODING 52
SWIDTH 514 0
DWIDTH 14 0
BBX 14 19 0 0
BITMAP
03F8
0448
0448
0888
1088
1908
25E8
2288
4488
87F4
8884
9084
3778
1890
0090
0090
0110
0108
00F0
ENDCHAR
STARTCHAR five
ENCODING 53
SWIDTH 500 0
DWIDTH 14 0
BBX 12 20 1 0
BITMAP
0020
7FD0
8A10
8A10
88F0
8F00
8800
A800
D7E0
8260
8290
7990
0690
0090
0090
FFF0
8410
8410
8410
FFE0
ENDCHAR
STARTCHAR six
ENCODING 54
SWIDTH 520 0
DWIDTH 15 0
BBX 15 21 0 -1
BITMAP
0600
0900
0880
0880
1100
1100
3D00
2300
2280
2240
2230
2228
7B46
44A2
44D2
470C
8808
8818
88E0
7900
0600
ENDCHAR
STARTCHAR seven
ENCODING 55
SWIDTH 423 0
DWIDTH 12 0
BBX 12 19 0 0
BITMAP
7FE0
8210
8210
8410
7FE0
0220
0720
04A0
0440
0440
0880
0E80
0980
0880
1100
1100
2100
2100
1E00
ENDCHAR
STARTCHAR eight
ENCODING 56
SWIDTH 527 0
DWIDTH 15 0
BBX 14 20 0 -1
BITMAP
3FF8
4084
40B4
4FC8
7444
2288
1388
1510
0890
0860
1420
1260
2290
2310
4488
8784
8844
7844
2FFC
1000
ENDCHAR
STARTCHAR nine
ENCODING 57
SWIDTH 500 0
DWIDTH 14 0
BBX 14 19 0 0
BITMAP
01F0
0E28
7214
8214
81E8
8E88
F5C8
8330
6110
1220
0A20
0640
05C0
0440
0880
0880
1100
1100
0F00
ENDCHAR
STARTCHAR colon
ENCODING 58
SWIDTH 245 0
DWIDTH 7 0
BBX 5 14 1 0
BITMAP
F8
88
88
70
00
00
00
00
00
00
F0
88
88
F8
ENDCHAR
STARTCHAR semicolon
ENCODING 59
SWIDTH 270 0
DWIDTH 8 0
BBX 6 18 0 -4
BITMAP
3C
24
24
3C
00
00
00
00
00
00
18
24
24
44
88
90
90
60
ENDCHAR
STARTCHAR less
ENCODING 60
SWIDTH 445 0
DWIDTH 12 0
BBX 11 15 1 2
BITMAP
0180
0640
0820
3460
C480
8100
8600
9800
E600
8300
C4C0
3420
0C20
0240
0180
ENDCHAR
STARTCHAR equal
ENCODING 61
SWIDTH 484 0
DWIDTH 14 0
BBX 12 12 1 4
BITMAP
7FE0
8210
8210
8210
7FE0
0000
0000
7FE0
8210
8210
8210
7FE0
ENDCHAR
STARTCHAR greater
ENCODING 62
SWIDTH 445 0
DWIDTH 12 0
BBX 11 15 1 2
BITMAP
7000
8800
8600
8500
68C0
1020
0C20
0240
0DA0
1820
E8C0
8500
8600
9800
6000
ENDCHAR
STARTCHAR question
ENCODING 63
SWIDTH 455 0
DWIDTH 13 0
BBX 11 20 1 0
BITMAP
6000
9800
8700
82E0
8420
7820
0720
18E0
2060
2180
5200
4C00
4400
4400
3800
0000
7800
4400
4800
7800
ENDCHAR
STARTCHAR at
ENCODING 64
SWIDTH 812 0
DWIDTH 23 0
BBX 21 22 1 -2
BITMAP
3FFF80
4109C0
C10A20
7FFF20
500120
53FF60
AC2390
CB8A90
927690
9452B0
9492D0
959248
EEFFC8
941148
921148
93FEB0
8C0160
8BC000
722000
3A2000
07C000
004000
ENDCHAR
STARTCHAR A
ENCODING 65
SWIDTH 507 0
DWIDTH 14 0
BBX 15 20 0 0
BITMAP
0600
0900
08C0
1120
1120
1120
3920
2520
23D0
2310
2290
229C
73E2
4482
4482
443C
87C8
8844
8844
7878
ENDCHAR
STARTCHAR B
ENCODING 66
SWIDTH 533 0
DWIDTH 15 0
BBX 14 22 1 -1
BITMAP
1800
2600
C180
40E0
609C
5D04
8B84
F8E8
8B18
8E18
8920
88C0
8B30
F408
8B08
8BC8
8E34
F118
8160
C180
4600
3800
ENDCHAR
STARTCHAR C
ENCODING 67
SWIDTH 515 0
DWIDTH 14 0
BBX 14 21 0 -1
BITMAP
1C00
23FC
2084
2084
2C04
33FC
3A00
2600
2200
2400
2400
4400
7A00
4400
4418
47E4
8484
8484
783C
2FC0
1000
ENDCHAR
STARTCHAR D
ENCODING 68
SWIDTH 520 0
DWIDTH 15 0
BBX 14 21 1 -1
BITMAP
7C00
A200
A100
6080
5040
88A0
F510
8A08
8984
8844
884C
88B4
FB08
8D10
8CA0
8840
8880
8900
8A00
7A00
0400
ENDCHAR
STARTCHAR E
ENCODING 69
SWIDTH 490 0
DWIDTH 14 0
BBX 13 20 1 0
BITMAP
7010
8FF0
8908
4908
48F0
8F10
F800
8800
8FC0
8840
8840
8840
FF80
8800
8E00
8BF0
8A10
8A10
8C90
7B60
ENDCHAR
STARTCHAR F
ENCODING 70
SWIDTH 475 0
DWIDTH 13 0
BBX 13 20 1 0
BITMAP
7010
8FF0
8908
4908
48F0
8F10
F800
8800
8FC0
8840
8840
8840
FF80
8800
8800
8800
8800
8800
8800
7800
ENDCHAR
STARTCHAR G
ENCODING 71
SWIDTH 557 0
DWIDTH 16 0
BBX 15 21 0 -1
BITMAP
1C00
23FC
2084
2084
2C04
33FC
3A00
2600
221C
2422
2422
4422
7A22
443E
4422
47E2
84A2
84A2
7822
2FDC
1000
ENDCHAR
STARTCHAR H
ENCODING 72
SWIDTH 611 0
DWIDTH 17 0
BBX 16 20 1 0
BITMAP
7038
8C46
8842
4844
4844
8844
F874
884C
8844
8846
885D
88E1
F721
8A23
8A3C
89C4
8E44
8844
8444
7838
ENDCHAR
STARTCHAR I
ENCODING 73
SWIDTH 266 0
DWIDTH 7 0
BBX 6 20 1 0
BITMAP
70
8C
88
48
48
88
F8
88
88
88
88
88
F8
88
88
88
88
88
84
78
ENDCHAR
STARTCHAR J
ENCODING 74
SWIDTH 484 0
DWIDTH 14 0
BBX 13 21 0 -1
BITMAP
0060
0198
0088
0090
0090
0090
01E8
0108
0110
0090
7090
9110
89E8
8508
4710
3910
1090
1050
0848
04F0
0300
ENDCHAR
STARTCHAR K
ENCODING 75
SWIDTH 541 0
DWIDTH 15 0
BBX 15 20 1 0
BITMAP
7000
8C38
8824
4842
4886
8908
FA90
8A50
8C20
8840
88C0
8D20
FB20
8A50
8D90
8910
8888
8884
8888
7870
ENDCHAR
STARTCHAR L
ENCODING 76
SWIDTH 467 0
DWIDTH 13 0
BBX 13 20 1 0
BITMAP
7000
8C00
8800
4800
4800
8800
F800
8800
8800
8800
8800
8800
F800
8800
8800
8FF0
8A08
8A08
8408
7FF0
ENDCHAR
STARTCHAR M
ENCODING 77
SWIDTH 733 0
DWIDTH 21 0
BBX 21 20 0 0
BITMAP
0C0700
130880
1108C0
1188C0
1288C0
229140
3A5D40
265340
23D1E0
226220
222220
452320
7D1B20
45D3D0
451510
449510
888890
888890
888C88
7870F0
ENDCHAR
STARTCHAR N
ENCODING 78
SWIDTH 598 0
DWIDTH 17 0
BBX 15 20 1 0
BITMAP
301C
CC22
8A22
4A22
4A22
8922
FAFA
84C2
88A2
8864
8C64
8C22
FBFA
8A22
8914
8914
888C
888A
889A
F87C
ENDCHAR
STARTCHAR O
ENCODING 79
SWIDTH 612 0
DWIDTH 17 0
BBX 17 21 0 -1
BITMAP
1C0000
23FE00
208600
208200
2C0600
33FE00
3A1100
263D00
221100
241100
241100
441100
7A1F00
441100
441700
47FB00
848100
844180
783F00
2FC400
100000
ENDCHAR
STARTCHAR P
ENCODING 80
SWIDTH 513 0
DWIDTH 14 0
BBX 14 21 1 0
BITMAP
1000
2C00
C380
C0C0
C0B8
7904
8E04
89C8
F8B8
8B08
8E10
8920
8840
E980
9A00
8C00
8800
8800
8800
8800
F800
ENDCHAR
STARTCHAR Q
ENCODING 81
SWIDTH 612 0
DWIDTH 17 0
BBX 17 24 0 -4
BITMAP
1C0000
23FE00
208600
208200
2C0600
33FE00
3A1100
263D00
221100
241100
241100
441100
7A1F00
441100
441700
47FB00
848100
844180
781F00
2FE400
122000
022000
021000
01E000
ENDCHAR
STARTCHAR R
ENCODING 82
SWIDTH 532 0
DWIDTH 15 0
BBX 14 21 1 -1
BITMAP
3800
4700
C0C0
C0B8
7904
8E04
89C4
F8B8
8B08
8F90
8A60
8C40
8A20
FB10
8D70
8988
8888
8844
8844
8858
7020
ENDCHAR
STARTCHAR S
ENCODING 83
SWIDTH 442 0
DWIDTH 12 0
BBX 12 21 0 -1
BITMAP
03E0
7E10
7A10
4A10
87E0
4400
2200
2500
2900
1100
0880
0840
05C0
0620
0220
7F10
8510
8510
81E0
BE00
4000
ENDCHAR
STARTCHAR T
ENCODING 84
SWIDTH 453 0
DWIDTH 13 0
BBX 13 20 0 0
BITMAP
7F30
82C8
8208
8208
BFF8
4880
0880
0F80
0880
0880
0880
0880
0880
0F80
0880
0880
0880
0880
1080
0F00
ENDCHAR
STARTCHAR U
ENCODING 85
SWIDTH 583 0
DWIDTH 16 0
BBX 16 21 0 -1
BITMAP
1C0C
2222
2222
2222
2222
2222
3A3E
4222
4422
4422
4422
4422
7C3D
4422
441E
47E6
8486
8485
78BD
27DE
1800
ENDCHAR
STARTCHAR V
ENCODING 86
SWIDTH 506 0
DWIDTH 14 0
BBX 14 20 0 -1
BITMAP
7830
884C
8844
4844
4448
44C8
7CB8
4488
2290
2290
2310
21F0
1F10
1120
1220
1220
0C20
0A20
09C0
0600
ENDCHAR
STARTCHAR W
ENCODING 87
SWIDTH 735 0
DWIDTH 21 0
BBX 20 20 0 -1
BITMAP
7801E0
887110
888910
888910
448920
454620
7DFFE0
454620
432620
232220
222240
23FE40
1E25A0
123440
125440
145440
0C5880
0C4880
0B8C80
040300
ENDCHAR
STARTCHAR X
ENCODING 88
SWIDTH 483 0
DWIDTH 14 0
BBX 13 19 0 0
BITMAP
3860
4898
8488
4488
2310
2320
1CA0
1420
1440
0880
10C0
1DA0
2320
2210
4510
8488
8888
C888
3870
ENDCHAR
STARTCHAR Y
ENCODING 89
SWIDTH 484 0
DWIDTH 14 0
BBX 15 19 -1 0
BITMAP
383C
4822
8422
4442
2344
27E4
1898
1088
0910
0510
0220
03A0
0460
0440
0440
0880
1080
0C80
0300
ENDCHAR
STARTCHAR Z
ENCODING 90
SWIDTH 458 0
DWIDTH 13 0
BBX 13 19 0 0
BITMAP
7FF0
4210
4218
4DD8
3230
0620
05A0
0440
0840
0880
1100
2D00
2300
4200
47F0
8610
8A10
48D0
3720
ENDCHAR
STARTCHAR bracketleft
ENCODING 91
SWIDTH 420 0
DWIDTH 12 0
BBX 10 24 1 -2
BITMAP
0080
0740
3840
D840
89C0
8E00
8800
8800
8800
F800
8800
8800
8800
8800
8800
F800
8800
8800
8800
8FC0
8840
9840
6F40
10C0
ENDCHAR
STARTCHAR backslash
ENCODING 92
SWIDTH 453 0
DWIDTH 13 0
BBX 12 19 0 0
BITMAP
3800
4400
8400
4400
2200
2700
2900
1100
1080
0880
0840
05C0
0640
0420
0220
0210
0110
0130
00C0
ENDCHAR
STARTCHAR bracketright
ENCODING 93
SWIDTH 420 0
DWIDTH 12 0
BBX 11 24 0 -2
BITMAP
2000
5C00
8380
8340
7420
0C20
0240
0220
0220
03E0
0220
0220
0220
0220
0220
03E0
0220
0220
0220
7E20
8220
8260
9F80
6100
ENDCHAR
STARTCHAR asciicircum
ENCODING 94
SWIDTH 353 0
DWIDTH 10 0
BBX 8 7 1 11
BITMAP
3C
24
4A
92
99
A5
46
ENDCHAR
STARTCHAR underscore
ENCODING 95
SWIDTH 499 0
DWIDTH 14 0
BBX 12 5 1 -7
BITMAP
7FE0
8210
8210
8210
7FE0
ENDCHAR
STARTCHAR grave
ENCODING 96
SWIDTH 183 0
DWIDTH 5 0
BBX 5 6 0 21
BITMAP
70
90
90
48
28
30
ENDCHAR
STARTCHAR a
ENCODING 97
SWIDTH 507 0
DWIDTH 14 0
BBX 15 20 0 0
BITMAP
0600
0900
08C0
1120
1120
1120
3920
2520
23D0
2310
2290
229C
73E2
4482
4482
443C
87C8
8844
8844
7878
ENDCHAR
STARTCHAR b
ENCODING 98
SWIDTH 533 0
DWIDTH 15 0
BBX 14 22 1 -1
BITMAP
1800
2600
C180
40E0
609C
5D04
8B84
F8E8
8B18
8E18
8920
88C0
8B30
F408
8B08
8BC8
8E34
F118
8160
C180
4600
3800
ENDCHAR
STARTCHAR c
ENCODING 99
SWIDTH 515 0
DWIDTH 14 0
BBX 14 21 0 -1
BITMAP
1C00
23FC
2084
2084
2C04
33FC
3A00
2600
2200
2400
2400
4400
7A00
4400
4418
47E4
8484
8484
783C
2FC0
1000
ENDCHAR
STARTCHAR d
ENCODING 100
SWIDTH 520 0
DWIDTH 15 0
BBX 14 21 1 -1
BITMAP
7C00
A200
A100
6080
5040
88A0
F510
8A08
8984
8844
884C
88B4
FB08
8D10
8CA0
8840
8880
8900
8A00
7A00
0400
ENDCHAR
STARTCHAR e
ENCODING 101
SWIDTH 490 0
DWIDTH 14 0
BBX 13 20 1 0
BITMAP
7010
8FF0
8908
4908
48F0
8F10
F800
8800
8FC0
8840
8840
8840
FF80
8800
8E00
8BF0
8A10
8A10
8C90
7B60
ENDCHAR
STARTCHAR f
ENCODING 102
SWIDTH 475 0
DWIDTH 13 0
BBX 13 20 1 0
BITMAP
7010
8FF0
8908
4908
48F0
8F10
F800
8800
8FC0
8840
8840
8840
FF80
8800
8800
8800
8800
8800
8800
7800
ENDCHAR
STARTCHAR g
ENCODING 103
SWIDTH 557 0
DWIDTH 16 0
BBX 15 21 0 -1
BITMAP
1C00
23FC
2084
2084
2C04
33FC
3A00
2600
221C
2422
2422
4422
7A22
443E
4422
47E2
84A2
84A2
7822
2FDC
1000
ENDCHAR
STARTCHAR h
ENCODING 104
SWIDTH 611 0
DWIDTH 17 0
BBX 16 20 1 0
BITMAP
7038
8C46
8842
4844
4844
8844
F874
884C
8844
8846
885D
88E1
F721
8A23
8A3C
89C4
8E44
8844
8444
7838
ENDCHAR
STARTCHAR i
ENCODING 105
SWIDTH 266 0
DWIDTH 7 0
BBX 6 20 1 0
BITMAP
70
8C
88
48
48
88
F8
88
88
88
88
88
F8
88
88
88
88
88
84
78
ENDCHAR
STARTCHAR j
ENCODING 106
SWIDTH 482 0
DWIDTH 14 0
BBX 13 21 0 -1
BITMAP
0060
0198
0088
0090
0090
0090
01E8
0108
0110
0090
7090
9110
89E8
8508
4710
3910
1090
1050
0848
04F0
0300
ENDCHAR
STARTCHAR k
ENCODING 107
SWIDTH 541 0
DWIDTH 15 0
BBX 15 20 1 0
BITMAP
7000
8C38
8824
4842
4886
8908
FA90
8A50
8C20
8840
88C0
8D20
FB20
8A50
8D90
8910
8888
8884
8888
7870
ENDCHAR
STARTCHAR l
ENCODING 108
SWIDTH 467 0
DWIDTH 13 0
BBX 13 20 1 0
BITMAP
7000
8C00
8800
4800
4800
8800
F800
8800
8800
8800
8800
8800
F800
8800
8800
8FF0
8A08
8A08
8408
7FF0
ENDCHAR
STARTCHAR m
ENCODING 109
SWIDTH 733 0
DWIDTH 21 0
BBX 21 20 0 0
BITMAP
0C0700
130880
1108C0
1188C0
1288C0
229140
3A5D40
265340
23D1E0
226220
222220
452320
7D1B20
45D3D0
451510
449510
888890
888890
888C88
7870F0
ENDCHAR
STARTCHAR n
ENCODING 110
SWIDTH 598 0
DWIDTH 17 0
BBX 15 20 1 0
BITMAP
301C
CC22
8A22
4A22
4A22
8922
FAFA
84C2
88A2
8864
8C64
8C22
FBFA
8A22
8914
8914
888C
888A
889A
F87C
ENDCHAR
STARTCHAR o
ENCODING 111
SWIDTH 612 0
DWIDTH 17 0
BBX 17 21 0 -1
BITMAP
1C0000
23FE00
208600
208200
2C0600
33FE00
3A1100
263D00
221100
241100
241100
441100
7A1F00
441100
441700
47FB00
848100
844180
783F00
2FC400
100000
ENDCHAR
STARTCHAR p
ENCODING 112
SWIDTH 513 0
DWIDTH 14 0
BBX 14 21 1 0
BITMAP
1000
2C00
C380
C0C0
C0B8
7904
8E04
89C8
F8B8
8B08
8E10
8920
8840
E980
9A00
8C00
8800
8800
8800
8800
F800
ENDCHAR
STARTCHAR q
ENCODING 113
SWIDTH 612 0
DWIDTH 17 0
BBX 17 24 0 -4
BITMAP
1C0000
23FE00
208600
208200
2C0600
33FE00
3A1100
263D00
221100
241100
241100
441100
7A1F00
441100
441700
47FB00
848100
844180
781F00
2FE400
122000
022000
021000
01E000
ENDCHAR
STARTCHAR r
ENCODING 114
SWIDTH 532 0
DWIDTH 15 0
BBX 14 21 1 -1
BITMAP
3800
4700
C0C0
C0B8
7904
8E04
89C4
F8B8
8B08
8F90
8A60
8C40
8A20
FB10
8D70
8988
8888
8844
8844
8858
7020
ENDCHAR
STARTCHAR s
ENCODING 115
SWIDTH 442 0
DWIDTH 12 0
BBX 12 21 0 -1
BITMAP
03E0
7E10
7A10
4A10
87E0
4400
2200
2500
2900
1100
0880
0840
05C0
0620
0220
7F10
8510
8510
81E0
BE00
4000
ENDCHAR
STARTCHAR t
ENCODING 116
SWIDTH 453 0
DWIDTH 13 0
BBX 13 20 0 0
BITMAP
7F30
82C8
8208
8208
BFF8
4880
0880
0F80
0880
0880
0880
0880
0880
0F80
0880
0880
0880
0880
1080
0F00
ENDCHAR
STARTCHAR u
ENCODING 117
SWIDTH 583 0
DWIDTH 16 0
BBX 16 21 0 -1
BITMAP
1C0C
2222
2222
2222
2222
2222
3A3E
4222
4422
4422
4422
4422
7C3D
4422
441E
47E6
8486
8485
78BD
27DE
1800
ENDCHAR
STARTCHAR v
ENCODING 118
SWIDTH 506 0
DWIDTH 14 0
BBX 14 20 0 -1
BITMAP
7830
884C
8844
4844
4448
44C8
7CB8
4488
2290
2290
2310
21F0
1F10
1120
1220
1220
0C20
0A20
09C0
0600
ENDCHAR
STARTCHAR w
ENCODING 119
SWIDTH 735 0
DWIDTH 21 0
BBX 20 20 0 -1
BITMAP
7801E0
887110
888910
888910
448920
454620
7DFFE0
454620
432620
232220
222240
23FE40
1E25A0
123440
125440
145440
0C5880
0C4880
0B8C80
040300
ENDCHAR
STARTCHAR x
ENCODING 120
SWIDTH 483 0
DWIDTH 14 0
BBX 13 19 0 0
BITMAP
3860
4898
8488
4488
2310
2320
1CA0
1420
1440
0880
10C0
1DA0
2320
2210
4510
8488
8888
C888
3870
ENDCHAR
STARTCHAR y
ENCODING 121
SWIDTH 484 0
DWIDTH 14 0
BBX 15 19 -1 0
BITMAP
383C
4822
8422
4442
2344
27E4
1898
1088
0910
0510
0220
03A0
0460
0440
0440
0880
1080
0C80
0300
ENDCHAR
STARTCHAR z
ENCODING 122
SWIDTH 458 0
DWIDTH 13 0
BBX 13 19 0 0
BITMAP
7FF0
4210
4218
4DD8
3230
0620
05A0
0440
0840
0880
1100
2D00
2300
4200
47F0
8610
8A10
48D0
3720
ENDCHAR
STARTCHAR braceleft
ENCODING 123
SWIDTH 473 0
DWIDTH 13 0
BBX 13 24 0 -2
BITMAP
0010
06F0
0908
1108
1138
08C0
0B80
0C80
0840
6440
9B20
80C0
80C0
FF40
0440
0880
0F80
0880
1100
11F0
2108
1208
0F88
0070
ENDCHAR
STARTCHAR bar
ENCODING 124
SWIDTH 263 0
DWIDTH 7 0
BBX 6 22 1 -1
BITMAP
78
84
88
48
48
88
88
F8
88
88
88
88
88
F8
88
88
88
88
88
88
88
F8
ENDCHAR
STARTCHAR braceright
ENCODING 125
SWIDTH 473 0
DWIDTH 13 0
BBX 13 24 0 -2
BITMAP
2000
5B00
84C0
8420
7440
0840
0B80
0880
0880
1330
24C8
1808
1808
17F8
1100
0880
0B80
0840
0440
7C20
8220
8240
4F80
7000
ENDCHAR
STARTCHAR asciitilde
ENCODING 126
SWIDTH 456 0
DWIDTH 13 0
BBX 11 7 1 7
BITMAP
3CC0
2520
4B20
9240
9980
A980
6780
ENDCHAR
STARTCHAR nonbreakingspace
ENCODING 160
SWIDTH 200 0
DWIDTH 6 0
BBX 1 1 0 0
BITMAP
00
ENDCHAR
STARTCHAR exclamdown
ENCODING 161
SWIDTH 259 0
DWIDTH 7 0
BBX 5 19 1 0
BITMAP
78
48
48
78
00
70
88
88
88
88
88
88
F8
88
88
88
88
88
F8
ENDCHAR
STARTCHAR cent
ENCODING 162
SWIDTH 480 0
DWIDTH 13 0
BBX 12 26 1 -4
BITMAP
0700
0880
0880
0900
09E0
0F10
3A10
4210
C1E0
C700
A800
9800
E800
8800
8800
8C00
8B00
89E0
7210
3A10
0F10
09E0
0900
0900
0900
0200
ENDCHAR
STARTCHAR sterling
ENCODING 163
SWIDTH 594 0
DWIDTH 17 0
BBX 15 19 1 0
BITMAP
0700
08F0
1808
1808
1708
11E8
1110
FF60
91A0
9110
9110
B1E0
5F00
1104
11FA
1142
1142
211A
1EE4
ENDCHAR
STARTCHAR currency
ENCODING 164
SWIDTH 640 0
DWIDTH 18 0
BBX 16 16 1 2
BITMAP
718E
8A49
8AB1
8D12
7D0C
128C
2153
4221
4641
45B2
38D4
484A
8491
8B31
D1AA
2044
ENDCHAR
STARTCHAR yen
ENCODING 165
SWIDTH 575 0
DWIDTH 16 0
BBX 15 19 1 0
BITMAP
3038
D044
8842
8844
4488
2788
2968
1110
1110
3FB0
4148
4108
4108
3FF8
0880
1080
1100
1100
0F00
ENDCHAR
STARTCHAR brokenbar
ENCODING 166
SWIDTH 258 0
DWIDTH 7 0
BBX 5 25 1 -3
BITMAP
70
88
88
88
88
F8
88
88
88
88
88
60
00
70
88
88
88
88
F8
88
88
88
88
88
70
ENDCHAR
STARTCHAR section
ENCODING 167
SWIDTH 474 0
DWIDTH 13 0
BBX 12 21 1 -1
BITMAP
07C0
FC20
8220
E220
9FE0
8700
84E0
78E0
2D10
4720
8A20
8E40
CDC0
B820
7820
5E20
A5E0
8220
82A0
BF40
4000
ENDCHAR
STARTCHAR dieresis
ENCODING 168
SWIDTH 351 0
DWIDTH 10 0
BBX 10 4 0 21
BITMAP
FFC0
9440
9480
7380
ENDCHAR
STARTCHAR copyright
ENCODING 169
SWIDTH 719 0
DWIDTH 20 0
BBX 18 20 1 0
BITMAP
6FFF80
4109C0
C11240
BFFE40
900240
91F240
D21340
B272C0
938240
928240
928240
928240
F4F3C0
939240
91F240
900240
9FFF40
9210C0
621080
7FFF80
ENDCHAR
STARTCHAR ordfeminine
ENCODING 170
SWIDTH 455 0
DWIDTH 13 0
BBX 13 19 0 0
BITMAP
1FC0
1440
1440
1440
2220
2220
7AE0
4220
5F10
6110
A090
A788
9888
7070
1FC0
2020
2020
2020
3FC0
ENDCHAR
STARTCHAR guillemotleft
ENCODING 171
SWIDTH 689 0
DWIDTH 19 0
BBX 17 12 1 4
BITMAP
060300
090480
311880
C16080
864300
884400
D86C00
A45200
C32180
211880
110480
0E0300
ENDCHAR
STARTCHAR logicalnot
ENCODING 172
SWIDTH 591 0
DWIDTH 17 0
BBX 15 11 1 1
BITMAP
4208
BD78
811C
8122
9CE2
6324
0024
0024
0024
0022
003C
ENDCHAR
STARTCHAR uni00AD
ENCODING 173
SWIDTH 465 0
DWIDTH 13 0
BBX 11 5 1 7
BITMAP
FFE0
8220
8220
8420
FFE0
ENDCHAR
STARTCHAR registered
ENCODING 174
SWIDTH 719 0
DWIDTH 20 0
BBX 18 20 1 0
BITMAP
6FFF80
4109C0
C11240
BFFE40
900240
910240
D3E340
B31AC0
93CA40
92B240
928240
928240
F283C0
928240
938240
900240
9FFF40
9210C0
621080
7FFF80
ENDCHAR
STARTCHAR macron
ENCODING 175
SWIDTH 263 0
DWIDTH 7 0
BBX 7 4 0 21
BITMAP
7E
82
82
7E
ENDCHAR
STARTCHAR degree
ENCODING 176
SWIDTH 333 0
DWIDTH 9 0
BBX 9 8 0 11
BITMAP
1200
2D00
2500
4C80
9480
6B80
4080
7F00
ENDCHAR
STARTCHAR plusminus
ENCODING 177
SWIDTH 464 0
DWIDTH 13 0
BBX 11 18 1 -3
BITMAP
0F00
1100
1100
7F40
84A0
8220
8220
BFE0
5100
1100
1100
0E00
0000
FFE0
8220
8220
8420
FFE0
ENDCHAR
STARTCHAR twosuperior
ENCODING 178
SWIDTH 324 0
DWIDTH 9 0
BBX 7 10 1 9
BITMAP
FE
82
92
EE
24
48
88
96
92
FE
ENDCHAR
STARTCHAR threesuperior
ENCODING 179
SWIDTH 332 0
DWIDTH 9 0
BBX 8 11 1 8
BITMAP
FE
82
82
FE
4A
49
39
D9
8A
9E
60
ENDCHAR
STARTCHAR acute
ENCODING 180
SWIDTH 202 0
DWIDTH 6 0
BBX 6 6 0 21
BITMAP
18
24
48
50
90
60
ENDCHAR
STARTCHAR mu
ENCODING 181
SWIDTH 582 0
DWIDTH 16 0
BBX 15 23 1 -4
BITMAP
787C
4484
4448
4448
4444
4444
447C
F444
8444
4844
4844
4854
486C
8874
F7CC
8A0C
890C
891A
8FEC
8810
8800
8800
6000
ENDCHAR
STARTCHAR paragraph
ENCODING 182
SWIDTH 556 0
DWIDTH 16 0
BBX 14 22 1 -1
BITMAP
0040
00A0
0718
1814
E418
84E8
8388
9C88
ECF8
8288
6388
1488
0888
0488
02F8
0188
0088
0088
0088
0088
0088
0070
ENDCHAR
STARTCHAR periodcentered
ENCODING 183
SWIDTH 215 0
DWIDTH 6 0
BBX 4 5 1 8
BITMAP
60
90
90
90
F0
ENDCHAR
STARTCHAR cedilla
ENCODING 184
SWIDTH 237 0
DWIDTH 7 0
BBX 7 8 0 -6
BITMAP
1E
12
12
12
72
8C
9C
E0
ENDCHAR
STARTCHAR onesuperior
ENCODING 185
SWIDTH 286 0
DWIDTH 8 0
BBX 7 11 0 9
BITMAP
0C
12
22
C6
8A
92
72
12
12
12
1E
ENDCHAR
STARTCHAR ordmasculine
ENCODING 186
SWIDTH 476 0
DWIDTH 13 0
BBX 12 19 1 0
BITMAP
FFE0
8210
82E0
8110
FF10
9110
9110
9110
8FE0
9230
F210
8210
BFE0
4000
3F80
4040
4040
4040
3F80
ENDCHAR
STARTCHAR guillemotright
ENCODING 187
SWIDTH 689 0
DWIDTH 19 0
BBX 18 12 1 4
BITMAP
603800
984400
844200
836180
609040
110840
190CC0
269340
C32180
844200
884400
703800
ENDCHAR
STARTCHAR onequarter
ENCODING 188
SWIDTH 790 0
DWIDTH 22 0
BBX 21 20 0 0
BITMAP
040000
0A1800
312400
462400
892400
592400
294800
097800
094800
094860
099090
069130
00D148
00B248
0094F8
012488
012708
0123F8
01A048
004038
ENDCHAR
STARTCHAR onehalf
ENCODING 189
SWIDTH 771 0
DWIDTH 22 0
BBX 21 20 0 0
BITMAP
040000
0A1800
312400
462400
892400
592400
294800
097800
094800
094A00
0995F0
069408
00D550
00B2B0
009120
012120
012250
012468
01A288
0043F8
ENDCHAR
STARTCHAR threequarters
ENCODING 190
SWIDTH 817 0
DWIDTH 23 0
BBX 21 19 1 0
BITMAP
FE1800
832400
822400
FD2400
494800
494800
397800
F94800
8A4860
9E9090
609130
00D248
00B448
0098F8
012488
012718
0223F8
01A048
004038
ENDCHAR
STARTCHAR questiondown
ENCODING 191
SWIDTH 455 0
DWIDTH 13 0
BBX 11 20 1 0
BITMAP
0380
0440
0440
0440
0380
0000
0780
04C0
0480
0A80
1140
6080
8100
E600
9E00
85C0
8820
F820
0E20
01C0
ENDCHAR
STARTCHAR Agrave
ENCODING 192
SWIDTH 507 0
DWIDTH 14 0
BBX 15 26 0 0
BITMAP
0E00
1200
0900
0500
0480
0300
0600
0900
08C0
1120
1120
1120
3920
2520
23D0
2310
2290
229C
73E2
4482
4482
443C
87C8
8844
8844
7878
ENDCHAR
STARTCHAR Aacute
ENCODING 193
SWIDTH 507 0
DWIDTH 14 0
BBX 15 26 0 0
BITMAP
0060
0090
0090
0120
0240
0180
0600
0900
08C0
1120
1120
1120
3920
2520
23D0
2310
2290
229C
73E2
4482
4482
443C
87C8
8844
8844
7878
ENDCHAR
STARTCHAR Acircumflex
ENCODING 194
SWIDTH 507 0
DWIDTH 14 0
BBX 15 27 0 0
BITMAP
0380
0480
08C0
0920
1320
1490
0CE0
0600
0900
08C0
1120
1120
1120
3920
2520
23D0
2310
2290
229C
73E2
4482
4482
443C
87C8
8844
8844
7878
ENDCHAR
STARTCHAR Atilde
ENCODING 195
SWIDTH 507 0
DWIDTH 14 0
BBX 15 27 0 0
BITMAP
0F38
0948
12C8
1290
2650
2920
19E0
0600
0900
08C0
1120
1120
1120
3920
2520
23D0
2310
2290
229C
73E2
4482
4482
443C
87C8
8844
8844
7878
ENDCHAR
STARTCHAR Adieresis
ENCODING 196
SWIDTH 507 0
DWIDTH 14 0
BBX 15 25 0 0
BITMAP
3EF0
1290
1290
1CF0
0000
0600
0900
08C0
1120
1120
1120
3920
2520
23D0
2310
2290
229C
73E2
4482
4482
443C
87C8
8844
8844
7878
ENDCHAR
STARTCHAR Aring
ENCODING 197
SWIDTH 507 0
DWIDTH 14 0
BBX 15 28 0 0
BITMAP
07C0
0540
0920
12A0
1390
0C60
1020
0FC0
0600
0900
08C0
1120
1120
1120
3920
2520
23D0
2310
2290
229C
73E2
4482
4482
443C
87C8
8844
8844
7878
ENDCHAR
STARTCHAR AE
ENCODING 198
SWIDTH 797 0
DWIDTH 22 0
BBX 23 20 -1 0
BITMAP
000C06
00F1FA
009142
008942
01111A
0211E6
023B00
05B100
0431F0
045108
089108
109108
1D7FF0
131100
2111C0
43F17C
441142
841142
442132
381ECC
ENDCHAR
STARTCHAR Ccedilla
ENCODING 199
SWIDTH 515 0
DWIDTH 14 0
BBX 14 26 0 -6
BITMAP
1C00
23FC
2084
2084
2C04
33FC
3A00
2600
2200
2400
2400
4400
7A00
4400
4418
47E4
8484
8484
783C
2FE0
1140
0120
0720
08C0
09C0
0E00
ENDCHAR
STARTCHAR Egrave
ENCODING 200
SWIDTH 490 0
DWIDTH 14 0
BBX 13 27 1 0
BITMAP
0E00
1200
1200
0900
0900
0600
0000
7010
8FF0
8908
4908
48F0
8F10
F800
8800
8FC0
8840
8840
8840
FF80
8800
8E00
8BF0
8A10
8A10
8C90
7B60
ENDCHAR
STARTCHAR Eacute
ENCODING 201
SWIDTH 490 0
DWIDTH 14 0
BBX 13 27 1 0
BITMAP
0180
0140
0240
0480
0900
0600
0000
7010
8FF0
8908
4908
48F0
8F10
F800
8800
8FC0
8840
8840
8840
FF80
8800
8E00
8BF0
8A10
8A10
8C90
7B60
ENDCHAR
STARTCHAR Ecircumflex
ENCODING 202
SWIDTH 490 0
DWIDTH 14 0
BBX 13 28 1 0
BITMAP
0700
0900
1180
1240
2640
2920
19C0
0000
7010
8FF0
8908
4908
48F0
8F10
F800
8800
8FC0
8840
8840
8840
FF80
8800
8E00
8BF0
8A10
8A10
8C90
7B60
ENDCHAR
STARTCHAR Edieresis
ENCODING 203
SWIDTH 490 0
DWIDTH 14 0
BBX 13 25 1 0
BITMAP
7DE0
2520
2520
39C0
0000
7010
8FF0
8908
4908
48F0
8F10
F800
8800
8FC0
8840
8840
8840
FF80
8800
8E00
8BF0
8A10
8A10
8C90
7B60
ENDCHAR
STARTCHAR Igrave
ENCODING 204
SWIDTH 266 0
DWIDTH 7 0
BBX 7 27 0 0
BITMAP
70
90
90
48
28
30
00
38
46
44
24
24
44
7C
44
44
44
44
44
7C
44
44
44
44
44
42
3C
ENDCHAR
STARTCHAR Iacute
ENCODING 205
SWIDTH 266 0
DWIDTH 7 0
BBX 7 27 1 0
BITMAP
0E
0A
12
24
28
38
00
70
8C
88
48
48
88
F8
88
88
88
88
88
F8
88
88
88
88
88
84
78
ENDCHAR
STARTCHAR Icircumflex
ENCODING 206
SWIDTH 266 0
DWIDTH 7 0
BBX 9 28 0 0
BITMAP
1C00
2400
4A00
4A00
9900
A480
6700
0000
3800
4600
4400
2400
2400
4400
7C00
4400
4400
4400
4400
4400
7C00
4400
4400
4400
4400
4400
4200
3C00
ENDCHAR
STARTCHAR Idieresis
ENCODING 207
SWIDTH 266 0
DWIDTH 7 0
BBX 10 25 -1 0
BITMAP
FFC0
9440
9480
7380
0000
1C00
2300
2200
1200
1200
2200
3E00
2200
2200
2200
2200
2200
3E00
2200
2200
2200
2200
2200
2100
1E00
ENDCHAR
STARTCHAR Eth
ENCODING 208
SWIDTH 669 0
DWIDTH 19 0
BBX 19 21 0 -1
BITMAP
01E000
071000
030800
030400
02C200
022300
07AC80
043840
FF4420
80C220
80C260
B8C5A0
47A840
043880
046500
044100
044600
044800
043000
03D000
002000
ENDCHAR
STARTCHAR Ntilde
ENCODING 209
SWIDTH 598 0
DWIDTH 17 0
BBX 15 28 1 0
BITMAP
0798
04A4
0964
1248
1330
1530
08E0
0000
301C
CC22
8A22
4A22
4A22
8922
FAFA
84C2
88A2
8864
8C64
8C22
FBFA
8A22
8914
8914
888C
888A
889A
F87C
ENDCHAR
STARTCHAR Ograve
ENCODING 210
SWIDTH 612 0
DWIDTH 17 0
BBX 17 28 0 -1
BITMAP
03C000
024000
024000
014000
012000
00C000
000000
1C0000
23FE00
208600
208200
2C0600
33FE00
3A1100
263D00
221100
241100
241100
441100
7A1F00
441100
441700
47FB00
848100
844180
783F00
2FC400
100000
ENDCHAR
STARTCHAR Oacute
ENCODING 211
SWIDTH 612 0
DWIDTH 17 0
BBX 17 28 0 -1
BITMAP
003800
002800
004800
009000
00A000
00E000
000000
1C0000
23FE00
208600
208200
2C0600
33FE00
3A1100
263D00
221100
241100
241100
441100
7A1F00
441100
441700
47FB00
848100
844180
783F00
2FC400
100000
ENDCHAR
STARTCHAR Ocircumflex
ENCODING 212
SWIDTH 612 0
DWIDTH 17 0
BBX 17 28 0 -1
BITMAP
01E000
012000
025000
025000
04C800
052800
033800
1C0000
23FE00
208600
208200
2C0600
33FE00
3A1100
263D00
221100
241100
241100
441100
7A1F00
441100
441700
47FB00
848100
844180
783F00
2FC400
100000
ENDCHAR
STARTCHAR Otilde
ENCODING 213
SWIDTH 612 0
DWIDTH 17 0
BBX 17 28 0 -1
BITMAP
01CE00
024A00
047200
049400
099400
0A4800
067800
1C0000
23FE00
208600
208200
2C0600
33FE00
3A1100
263D00
221100
241100
241100
441100
7A1F00
441100
441700
47FB00
848100
844180
783F00
2FC400
100000
ENDCHAR
STARTCHAR Odieresis
ENCODING 214
SWIDTH 612 0
DWIDTH 17 0
BBX 17 26 0 -1
BITMAP
0F7800
094800
094800
0F3800
000000
1C0000
23FE00
208600
208200
2C0600
33FE00
3A1100
263D00
221100
241100
241100
441100
7A1F00
441100
441700
47FB00
848100
844180
783F00
2FC400
100000
ENDCHAR
STARTCHAR multiply
ENCODING 215
SWIDTH 421 0
DWIDTH 12 0
BBX 10 10 1 4
BITMAP
7380
8C40
8440
8240
4380
6C80
9040
8840
9480
6300
ENDCHAR
STARTCHAR Oslash
ENCODING 216
SWIDTH 612 0
DWIDTH 17 0
BBX 17 21 0 -1
BITMAP
1C0000
23FE00
209100
209100
2C2200
33C600
3AC500
26A900
231900
251100
263100
423100
7E5F00
455100
489F00
50F300
918100
A24180
423F00
23C400
1C0000
ENDCHAR
STARTCHAR Ugrave
ENCODING 217
SWIDTH 583 0
DWIDTH 16 0
BBX 16 27 0 -1
BITMAP
0780
0480
0480
0280
0240
0180
1C0C
2222
2222
2222
2222
2222
3A3E
4222
4422
4422
4422
4422
7C3D
4422
441E
47E6
8486
8485
78BD
27DE
1800
ENDCHAR
STARTCHAR Uacute
ENCODING 218
SWIDTH 583 0
DWIDTH 16 0
BBX 16 28 0 -1
BITMAP
0060
0050
0090
0120
0240
0180
0000
1C0C
2222
2222
2222
2222
2222
3A3E
4222
4422
4422
4422
4422
7C3D
4422
441E
47E6
8486
8485
78BD
27DE
1800
ENDCHAR
STARTCHAR Ucircumflex
ENCODING 219
SWIDTH 583 0
DWIDTH 16 0
BBX 16 28 0 -1
BITMAP
03C0
0240
04A0
04A0
0990
0A50
0670
1C0C
2222
2222
2222
2222
2222
3A3E
4222
4422
4422
4422
4422
7C3D
4422
441E
47E6
8486
8485
78BD
27DE
1800
ENDCHAR
STARTCHAR Udieresis
ENCODING 220
SWIDTH 583 0
DWIDTH 16 0
BBX 16 26 0 -1
BITMAP
1FF8
1188
0950
0E70
0000
1C0C
2222
2222
2222
2222
2222
3A3E
4222
4422
4422
4422
4422
7C3D
4422
441E
47E6
8486
8485
78BD
27DE
1800
ENDCHAR
STARTCHAR Yacute
ENCODING 221
SWIDTH 484 0
DWIDTH 14 0
BBX 15 25 -1 0
BITMAP
0060
0090
0090
0120
0240
0180
383C
4822
8422
4442
2344
27E4
1898
1088
0910
0510
0220
03A0
0460
0440
0440
0880
1080
0C80
0300
ENDCHAR
STARTCHAR Thorn
ENCODING 222
SWIDTH 520 0
DWIDTH 15 0
BBX 14 19 1 0
BITMAP
FC00
9800
AC00
4380
40C0
C0B8
B904
8E04
89C8
88B8
8B08
E610
9920
8840
8980
8A00
8C00
8800
F800
ENDCHAR
STARTCHAR germandbls
ENCODING 223
SWIDTH 884 0
DWIDTH 25 0
BBX 25 21 0 -1
BITMAP
03E03F00
7E13E100
7A179080
4A145100
87E47F00
44044000
22022000
25027000
29019000
11010800
08808800
08404400
05C05A00
06202200
02202100
7F17F100
85143080
85182900
81E80E00
BE05F000
40020000
ENDCHAR
STARTCHAR agrave
ENCODING 224
SWIDTH 507 0
DWIDTH 14 0
BBX 15 26 0 0
BITMAP
0E00
1200
0900
0500
0480
0300
0600
0900
08C0
1120
1120
1120
3920
2520
23D0
2310
2290
229C
73E2
4482
4482
443C
87C8
8844
8844
7878
ENDCHAR
STARTCHAR aacute
ENCODING 225
SWIDTH 507 0
DWIDTH 14 0
BBX 15 26 0 0
BITMAP
0060
0090
0090
0120
0240
0180
0600
0900
08C0
1120
1120
1120
3920
2520
23D0
2310
2290
229C
73E2
4482
4482
443C
87C8
8844
8844
7878
ENDCHAR
STARTCHAR acircumflex
ENCODING 226
SWIDTH 507 0
DWIDTH 14 0
BBX 15 27 0 0
BITMAP
0380
0480
08C0
0920
1320
1490
0CE0
0600
0900
08C0
1120
1120
1120
3920
2520
23D0
2310
2290
229C
73E2
4482
4482
443C
87C8
8844
8844
7878
ENDCHAR
STARTCHAR atilde
ENCODING 227
SWIDTH 507 0
DWIDTH 14 0
BBX 15 27 0 0
BITMAP
0F38
0948
12C8
1290
2650
2920
19E0
0600
0900
08C0
1120
1120
1120
3920
2520
23D0
2310
2290
229C
73E2
4482
4482
443C
87C8
8844
8844
7878
ENDCHAR
STARTCHAR adieresis
ENCODING 228
SWIDTH 507 0
DWIDTH 14 0
BBX 15 25 0 0
BITMAP
3EF0
1290
1290
1CF0
0000
0600
0900
08C0
1120
1120
1120
3920
2520
23D0
2310
2290
229C
73E2
4482
4482
443C
87C8
8844
8844
7878
ENDCHAR
STARTCHAR aring
ENCODING 229
SWIDTH 507 0
DWIDTH 14 0
BBX 15 28 0 0
BITMAP
07C0
0540
0920
12A0
1390
0C60
1020
0FC0
0600
0900
08C0
1120
1120
1120
3920
2520
23D0
2310
2290
229C
73E2
4482
4482
443C
87C8
8844
8844
7878
ENDCHAR
STARTCHAR ae
ENCODING 230
SWIDTH 797 0
DWIDTH 22 0
BBX 23 20 -1 0
BITMAP
000C06
00F1FA
009142
008942
01111A
0211E6
023B00
05B100
0431F0
045108
089108
109108
1D7FF0
131100
2111C0
43F17C
441142
841142
442132
381ECC
ENDCHAR
STARTCHAR ccedilla
ENCODING 231
SWIDTH 515 0
DWIDTH 14 0
BBX 14 26 0 -6
BITMAP
1C00
23FC
2084
2084
2C04
33FC
3A00
2600
2200
2400
2400
4400
7A00
4400
4418
47E4
8484
8484
783C
2FE0
1140
0120
0720
08C0
09C0
0E00
ENDCHAR
STARTCHAR egrave
ENCODING 232
SWIDTH 490 0
DWIDTH 14 0
BBX 13 27 1 0
BITMAP
0E00
1200
1200
0900
0900
0600
0000
7010
8FF0
8908
4908
48F0
8F10
F800
8800
8FC0
8840
8840
8840
FF80
8800
8E00
8BF0
8A10
8A10
8C90
7B60
ENDCHAR
STARTCHAR eacute
ENCODING 233
SWIDTH 490 0
DWIDTH 14 0
BBX 13 27 1 0
BITMAP
0180
0140
0240
0480
0900
0600
0000
7010
8FF0
8908
4908
48F0
8F10
F800
8800
8FC0
8840
8840
8840
FF80
8800
8E00
8BF0
8A10
8A10
8C90
7B60
ENDCHAR
STARTCHAR ecircumflex
ENCODING 234
SWIDTH 490 0
DWIDTH 14 0
BBX 13 28 1 0
BITMAP
0700
0900
1180
1240
2640
2920
19C0
0000
7010
8FF0
8908
4908
48F0
8F10
F800
8800
8FC0
8840
8840
8840
FF80
8800
8E00
8BF0
8A10
8A10
8C90
7B60
ENDCHAR
STARTCHAR edieresis
ENCODING 235
SWIDTH 490 0
DWIDTH 14 0
BBX 13 25 1 0
BITMAP
7DE0
2520
2520
39C0
0000
7010
8FF0
8908
4908
48F0
8F10
F800
8800
8FC0
8840
8840
8840
FF80
8800
8E00
8BF0
8A10
8A10
8C90
7B60
ENDCHAR
STARTCHAR igrave
ENCODING 236
SWIDTH 266 0
DWIDTH 7 0
BBX 7 27 0 0
BITMAP
70
90
90
48
28
30
00
38
46
44
24
24
44
7C
44
44
44
44
44
7C
44
44
44
44
44
42
3C
ENDCHAR
STARTCHAR iacute
ENCODING 237
SWIDTH 266 0
DWIDTH 7 0
BBX 7 27 1 0
BITMAP
0E
0A
12
24
28
38
00
70
8C
88
48
48
88
F8
88
88
88
88
88
F8
88
88
88
88
88
84
78
ENDCHAR
STARTCHAR icircumflex
ENCODING 238
SWIDTH 266 0
DWIDTH 7 0
BBX 9 28 0 0
BITMAP
1C00
2400
4A00
4A00
9900
A480
6700
0000
3800
4600
4400
2400
2400
4400
7C00
4400
4400
4400
4400
4400
7C00
4400
4400
4400
4400
4400
4200
3C00
ENDCHAR
STARTCHAR idieresis
ENCODING 239
SWIDTH 266 0
DWIDTH 7 0
BBX 10 25 -1 0
BITMAP
FFC0
9440
9480
7380
0000
1C00
2300
2200
1200
1200
2200
3E00
2200
2200
2200
2200
2200
3E00
2200
2200
2200
2200
2200
2100
1E00
ENDCHAR
STARTCHAR eth
ENCODING 240
SWIDTH 669 0
DWIDTH 19 0
BBX 19 21 0 -1
BITMAP
01E000
071000
030800
030400
02C200
022300
07AC80
043840
FF4420
80C220
80C260
B8C5A0
47A840
043880
046500
044100
044600
044800
043000
03D000
002000
ENDCHAR
STARTCHAR ntilde
ENCODING 241
SWIDTH 598 0
DWIDTH 17 0
BBX 15 28 1 0
BITMAP
0798
04A4
0964
1248
1330
1530
08E0
0000
301C
CC22
8A22
4A22
4A22
8922
FAFA
84C2
88A2
8864
8C64
8C22
FBFA
8A22
8914
8914
888C
888A
889A
F87C
ENDCHAR
STARTCHAR ograve
ENCODING 242
SWIDTH 612 0
DWIDTH 17 0
BBX 17 28 0 -1
BITMAP
03C000
024000
024000
014000
012000
00C000
000000
1C0000
23FE00
208600
208200
2C0600
33FE00
3A1100
263D00
221100
241100
241100
441100
7A1F00
441100
441700
47FB00
848100
844180
783F00
2FC400
100000
ENDCHAR
STARTCHAR oacute
ENCODING 243
SWIDTH 612 0
DWIDTH 17 0
BBX 17 28 0 -1
BITMAP
003800
002800
004800
009000
00A000
00E000
000000
1C0000
23FE00
208600
208200
2C0600
33FE00
3A1100
263D00
221100
241100
241100
441100
7A1F00
441100
441700
47FB00
848100
844180
783F00
2FC400
100000
ENDCHAR
STARTCHAR ocircumflex
ENCODING 244
SWIDTH 612 0
DWIDTH 17 0
BBX 17 28 0 -1
BITMAP
01E000
012000
025000
025000
04C800
052800
033800
1C0000
23FE00
208600
208200
2C0600
33FE00
3A1100
263D00
221100
241100
241100
441100
7A1F00
441100
441700
47FB00
848100
844180
783F00
2FC400
100000
ENDCHAR
STARTCHAR otilde
ENCODING 245
SWIDTH 612 0
DWIDTH 17 0
BBX 17 28 0 -1
BITMAP
01CE00
024A00
047200
049400
099400
0A4800
067800
1C0000
23FE00
208600
208200
2C0600
33FE00
3A1100
263D00
221100
241100
241100
441100
7A1F00
441100
441700
47FB00
848100
844180
783F00
2FC400
100000
ENDCHAR
STARTCHAR odieresis
ENCODING 246
SWIDTH 612 0
DWIDTH 17 0
BBX 17 26 0 -1
BITMAP
0F7800
094800
094800
0F3800
000000
1C0000
23FE00
208600
208200
2C0600
33FE00
3A1100
263D00
221100
241100
241100
441100
7A1F00
441100
441700
47FB00
848100
844180
783F00
2FC400
100000
ENDCHAR
STARTCHAR divide
ENCODING 247
SWIDTH 457 0
DWIDTH 13 0
BBX 11 16 1 1
BITMAP
1F00
1100
1100
1A00
0400
FFC0
8420
8220
8420
FFE0
0000
0E00
1100
1100
1100
0E00
ENDCHAR
STARTCHAR oslash
ENCODING 248
SWIDTH 612 0
DWIDTH 17 0
BBX 17 21 0 -1
BITMAP
1C0000
23FE00
209100
209100
2C2200
33C600
3AC500
26A900
231900
251100
263100
423100
7E5F00
455100
489F00
50F300
918100
A24180
423F00
23C400
1C0000
ENDCHAR
STARTCHAR ugrave
ENCODING 249
SWIDTH 583 0
DWIDTH 16 0
BBX 16 27 0 -1
BITMAP
0780
0480
0480
0280
0240
0180
1C0C
2222
2222
2222
2222
2222
3A3E
4222
4422
4422
4422
4422
7C3D
4422
441E
47E6
8486
8485
78BD
27DE
1800
ENDCHAR
STARTCHAR uacute
ENCODING 250
SWIDTH 583 0
DWIDTH 16 0
BBX 16 28 0 -1
BITMAP
0060
0050
0090
0120
0240
0180
0000
1C0C
2222
2222
2222
2222
2222
3A3E
4222
4422
4422
4422
4422
7C3D
4422
441E
47E6
8486
8485
78BD
27DE
1800
ENDCHAR
STARTCHAR ucircumflex
ENCODING 251
SWIDTH 583 0
DWIDTH 16 0
BBX 16 28 0 -1
BITMAP
03C0
0240
04A0
04A0
0990
0A50
0670
1C0C
2222
2222
2222
2222
2222
3A3E
4222
4422
4422
4422
4422
7C3D
4422
441E
47E6
8486
8485
78BD
27DE
1800
ENDCHAR
STARTCHAR udieresis
ENCODING 252
SWIDTH 583 0
DWIDTH 16 0
BBX 16 26 0 -1
BITMAP
1FF8
1188
0950
0E70
0000
1C0C
2222
2222
2222
2222
2222
3A3E
4222
4422
4422
4422
4422
7C3D
4422
441E
47E6
8486
8485
78BD
27DE
1800
ENDCHAR
STARTCHAR yacute
ENCODING 253
SWIDTH 484 0
DWIDTH 14 0
BBX 15 25 -1 0
BITMAP
0060
0090
0090
0120
0240
0180
383C
4822
8422
4442
2344
27E4
1898
1088
0910
0510
0220
03A0
0460
0440
0440
0880
1080
0C80
0300
ENDCHAR
STARTCHAR thorn
ENCODING 254
SWIDTH 520 0
DWIDTH 15 0
BBX 14 19 1 0
BITMAP
FC00
9800
AC00
4380
40C0
C0B8
B904
8E04
89C8
88B8
8B08
E610
9920
8840
8980
8A00
8C00
8800
F800
ENDCHAR
STARTCHAR ydieresis
ENCODING 255
SWIDTH 484 0
DWIDTH 14 0
BBX 15 24 -1 0
BITMAP
1FF8
1288
1290
0E70
0000
383C
4822
8422
4442
2344
27E4
1898
1088
0910
0510
0220
03A0
0460
0440
0440
0880
1080
0C80
0300
ENDCHAR
STARTCHAR Amacron
ENCODING 256
SWIDTH 507 0
DWIDTH 14 0
BBX 15 24 0 0
BITMAP
0FC0
1020
1020
0FC0
0600
0900
08C0
1120
1120
1120
3920
2520
23D0
2310
2290
229C
73E2
4482
4482
443C
87C8
8844
8844
7878
ENDCHAR
STARTCHAR amacron
ENCODING 257
SWIDTH 507 0
DWIDTH 14 0
BBX 15 24 0 0
BITMAP
0FC0
1020
1020
0FC0
0600
0900
08C0
1120
1120
1120
3920
2520
23D0
2310
2290
229C
73E2
4482
4482
443C
87C8
8844
8844
7878
ENDCHAR
STARTCHAR Abreve
ENCODING 258
SWIDTH 507 0
DWIDTH 14 0
BBX 15 27 0 0
BITMAP
1860
2490
1490
14A0
1360
1460
0FC0
0600
0900
08C0
1120
1120
1120
3920
2520
23D0
2310
2290
229C
73E2
4482
4482
443C
87C8
8844
8844
7878
ENDCHAR
STARTCHAR abreve
ENCODING 259
SWIDTH 507 0
DWIDTH 14 0
BBX 15 27 0 0
BITMAP
1860
2490
1490
14A0
1360
1460
0FC0
0600
0900
08C0
1120
1120
1120
3920
2520
23D0
2310
2290
229C
73E2
4482
4482
443C
87C8
8844
8844
7878
ENDCHAR
STARTCHAR Aogonek
ENCODING 260
SWIDTH 507 0
DWIDTH 14 0
BBX 15 26 0 -6
BITMAP
0600
0900
08C0
1120
1120
1120
3920
2520
23D0
2310
2290
229C
73E2
4482
4482
443C
87C8
8844
8844
7878
0048
0048
0074
0022
0012
000C
ENDCHAR
STARTCHAR aogonek
ENCODING 261
SWIDTH 507 0
DWIDTH 14 0
BBX 15 26 0 -6
BITMAP
0600
0900
08C0
1120
1120
1120
3920
2520
23D0
2310
2290
229C
73E2
4482
4482
443C
87C8
8844
8844
7878
0048
0048
0074
0022
0012
000C
ENDCHAR
STARTCHAR Cacute
ENCODING 262
SWIDTH 515 0
DWIDTH 14 0
BBX 14 27 0 -1
BITMAP
0030
0048
0090
00A0
0120
00C0
1C00
23FC
2084
2084
2C04
33FC
3A00
2600
2200
2400
2400
4400
7A00
4400
4418
47E4
8484
8484
783C
2FC0
1000
ENDCHAR
STARTCHAR cacute
ENCODING 263
SWIDTH 515 0
DWIDTH 14 0
BBX 14 27 0 -1
BITMAP
0030
0048
0090
00A0
0120
00C0
1C00
23FC
2084
2084
2C04
33FC
3A00
2600
2200
2400
2400
4400
7A00
4400
4418
47E4
8484
8484
783C
2FC0
1000
ENDCHAR
STARTCHAR Ccircumflex
ENCODING 264
SWIDTH 515 0
DWIDTH 14 0
BBX 14 28 0 -1
BITMAP
01C0
0120
0260
0490
08C8
0548
0630
1C00
23FC
2084
2084
2C04
33FC
3A00
2600
2200
2400
2400
4400
7A00
4400
4418
47E4
8484
8484
783C
2FC0
1000
ENDCHAR
STARTCHAR ccircumflex
ENCODING 265
SWIDTH 515 0
DWIDTH 14 0
BBX 14 28 0 -1
BITMAP
01C0
0120
0260
0490
08C8
0548
0630
1C00
23FC
2084
2084
2C04
33FC
3A00
2600
2200
2400
2400
4400
7A00
4400
4418
47E4
8484
8484
783C
2FC0
1000
ENDCHAR
STARTCHAR Cdotaccent
ENCODING 266
SWIDTH 515 0
DWIDTH 14 0
BBX 14 25 0 -1
BITMAP
03E0
0220
0120
01C0
1C00
23FC
2084
2084
2C04
33FC
3A00
2600
2200
2400
2400
4400
7A00
4400
4418
47E4
8484
8484
783C
2FC0
1000
ENDCHAR
STARTCHAR cdotaccent
ENCODING 267
SWIDTH 515 0
DWIDTH 14 0
BBX 14 25 0 -1
BITMAP
03E0
0220
0120
01C0
1C00
23FC
2084
2084
2C04
33FC
3A00
2600
2200
2400
2400
4400
7A00
4400
4418
47E4
8484
8484
783C
2FC0
1000
ENDCHAR
STARTCHAR Ccaron
ENCODING 268
SWIDTH 515 0
DWIDTH 14 0
BBX 14 28 0 -1
BITMAP
0730
0948
0488
0490
0260
0260
01C0
1C00
23FC
2084
2084
2C04
33FC
3A00
2600
2200
2400
2400
4400
7A00
4400
4418
47E4
8484
8484
783C
2FC0
1000
ENDCHAR
STARTCHAR ccaron
ENCODING 269
SWIDTH 515 0
DWIDTH 14 0
BBX 14 28 0 -1
BITMAP
0730
0948
0488
0490
0260
0260
01C0
1C00
23FC
2084
2084
2C04
33FC
3A00
2600
2200
2400
2400
4400
7A00
4400
4418
47E4
8484
8484
783C
2FC0
1000
ENDCHAR
STARTCHAR Dcaron
ENCODING 270
SWIDTH 520 0
DWIDTH 15 0
BBX 14 29 1 -1
BITMAP
39C0
2520
2640
1280
0980
0900
0F00
0000
7C00
A200
A100
6080
5040
88A0
F510
8A08
8984
8844
884C
88B4
FB08
8D10
8CA0
8840
8880
8900
8A00
7A00
0400
ENDCHAR
STARTCHAR dcaron
ENCODING 271
SWIDTH 520 0
DWIDTH 15 0
BBX 14 29 1 -1
BITMAP
39C0
2520
2640
1280
0980
0900
0F00
0000
7C00
A200
A100
6080
5040
88A0
F510
8A08
8984
8844
884C
88B4
FB08
8D10
8CA0
8840
8880
8900
8A00
7A00
0400
ENDCHAR
STARTCHAR Dcroat
ENCODING 272
SWIDTH 669 0
DWIDTH 19 0
BBX 19 21 0 -1
BITMAP
01E000
071000
030800
030400
02C200
022300
07AC80
043840
FF4420
80C220
80C260
B8C5A0
47A840
043880
046500
044100
044600
044800
043000
03D000
002000
ENDCHAR
STARTCHAR dcroat
ENCODING 273
SWIDTH 669 0
DWIDTH 19 0
BBX 19 21 0 -1
BITMAP
01E000
071000
030800
030400
02C200
022300
07AC80
043840
FF4420
80C220
80C260
B8C5A0
47A840
043880
046500
044100
044600
044800
043000
03D000
002000
ENDCHAR
STARTCHAR Emacron
ENCODING 274
SWIDTH 490 0
DWIDTH 14 0
BBX 13 25 1 0
BITMAP
1F80
2040
2040
1F80
0000
7010
8FF0
8908
4908
48F0
8F10
F800
8800
8FC0
8840
8840
8840
FF80
8800
8E00
8BF0
8A10
8A10
8C90
7B60
ENDCHAR
STARTCHAR emacron
ENCODING 275
SWIDTH 490 0
DWIDTH 14 0
BBX 13 25 1 0
BITMAP
1F80
2040
2040
1F80
0000
7010
8FF0
8908
4908
48F0
8F10
F800
8800
8FC0
8840
8840
8840
FF80
8800
8E00
8BF0
8A10
8A10
8C90
7B60
ENDCHAR
STARTCHAR Ebreve
ENCODING 276
SWIDTH 490 0
DWIDTH 14 0
BBX 13 27 1 0
BITMAP
18C0
2520
2520
25A0
2640
1440
0F80
7010
8FF0
8908
4908
48F0
8F10
F800
8800
8FC0
8840
8840
8840
FF80
8800
8E00
8BF0
8A10
8A10
8C90
7B60
ENDCHAR
STARTCHAR ebreve
ENCODING 277
SWIDTH 490 0
DWIDTH 14 0
BBX 13 27 1 0
BITMAP
18C0
2520
2520
25A0
2640
1440
0F80
7010
8FF0
8908
4908
48F0
8F10
F800
8800
8FC0
8840
8840
8840
FF80
8800
8E00
8BF0
8A10
8A10
8C90
7B60
ENDCHAR
STARTCHAR Edotaccent
ENCODING 278
SWIDTH 490 0
DWIDTH 14 0
BBX 13 25 1 0
BITMAP
0F00
0900
0900
0F00
0000
7010
8FF0
8908
4908
48F0
8F10
F800
8800
8FC0
8840
8840
8840
FF80
8800
8E00
8BF0
8A10
8A10
8C90
7B60
ENDCHAR
STARTCHAR edotaccent
ENCODING 279
SWIDTH 490 0
DWIDTH 14 0
BBX 13 25 1 0
BITMAP
0F00
0900
0900
0F00
0000
7010
8FF0
8908
4908
48F0
8F10
F800
8800
8FC0
8840
8840
8840
FF80
8800
8E00
8BF0
8A10
8A10
8C90
7B60
ENDCHAR
STARTCHAR Eogonek
ENCODING 280
SWIDTH 490 0
DWIDTH 14 0
BBX 13 26 1 -6
BITMAP
7010
8FF0
8908
4908
48F0
8F10
F800
8800
8FC0
8840
8840
8840
FF80
8800
8E00
8BF0
8A10
8A10
8C90
7B60
0140
0240
01A0
0198
0050
0020
ENDCHAR
STARTCHAR eogonek
ENCODING 281
SWIDTH 490 0
DWIDTH 14 0
BBX 13 26 1 -6
BITMAP
7010
8FF0
8908
4908
48F0
8F10
F800
8800
8FC0
8840
8840
8840
FF80
8800
8E00
8BF0
8A10
8A10
8C90
7B60
0140
0240
01A0
0198
0050
0020
ENDCHAR
STARTCHAR Ecaron
ENCODING 282
SWIDTH 490 0
DWIDTH 14 0
BBX 13 27 1 0
BITMAP
1DC0
2520
1240
1240
0980
0900
0700
7010
8FF0
8908
4908
48F0
8F10
F800
8800
8FC0
8840
8840
8840
FF80
8800
8E00
8BF0
8A10
8A10
8C90
7B60
ENDCHAR
STARTCHAR ecaron
ENCODING 283
SWIDTH 490 0
DWIDTH 14 0
BBX 13 27 1 0
BITMAP
1DC0
2520
1240
1240
0980
0900
0700
7010
8FF0
8908
4908
48F0
8F10
F800
8800
8FC0
8840
8840
8840
FF80
8800
8E00
8BF0
8A10
8A10
8C90
7B60
ENDCHAR
STARTCHAR Gcircumflex
ENCODING 284
SWIDTH 557 0
DWIDTH 16 0
BBX 15 28 0 -1
BITMAP
01C0
0260
0260
0490
0948
0948
0630
1C00
23FC
2084
2084
2C04
33FC
3A00
2600
221C
2422
2422
4422
7A22
443E
4422
47E2
84A2
84A2
7822
2FDC
1000
ENDCHAR
STARTCHAR gcircumflex
ENCODING 285
SWIDTH 557 0
DWIDTH 16 0
BBX 15 28 0 -1
BITMAP
01C0
0260
0260
0490
0948
0948
0630
1C00
23FC
2084
2084
2C04
33FC
3A00
2600
221C
2422
2422
4422
7A22
443E
4422
47E2
84A2
84A2
7822
2FDC
1000
ENDCHAR
STARTCHAR Gbreve
ENCODING 286
SWIDTH 557 0
DWIDTH 16 0
BBX 15 28 0 -1
BITMAP
0430
0A48
0A48
0970
0990
0D10
03E0
1C00
23FC
2084
2084
2C04
33FC
3A00
2600
221C
2422
2422
4422
7A22
443E
4422
47E2
84A2
84A2
7822
2FDC
1000
ENDCHAR
STARTCHAR gbreve
ENCODING 287
SWIDTH 557 0
DWIDTH 16 0
BBX 15 28 0 -1
BITMAP
0430
0A48
0A48
0970
0990
0D10
03E0
1C00
23FC
2084
2084
2C04
33FC
3A00
2600
221C
2422
2422
4422
7A22
443E
4422
47E2
84A2
84A2
7822
2FDC
1000
ENDCHAR
STARTCHAR Gdotaccent
ENCODING 288
SWIDTH 557 0
DWIDTH 16 0
BBX 15 26 0 -1
BITMAP
03E0
0120
0120
01C0
0000
1C00
23FC
2084
2084
2C04
33FC
3A00
2600
221C
2422
2422
4422
7A22
443E
4422
47E2
84A2
84A2
7822
2FDC
1000
ENDCHAR
STARTCHAR gdotaccent
ENCODING 289
SWIDTH 557 0
DWIDTH 16 0
BBX 15 26 0 -1
BITMAP
03E0
0120
0120
01C0
0000
1C00
23FC
2084
2084
2C04
33FC
3A00
2600
221C
2422
2422
4422
7A22
443E
4422
47E2
84A2
84A2
7822
2FDC
1000
ENDCHAR
STARTCHAR Gcommaaccent
ENCODING 290
SWIDTH 557 0
DWIDTH 16 0
BBX 15 27 0 -7
BITMAP
1C00
23FC
2084
2084
2C04
33FC
3A00
2600
221C
2422
2422
4422
7A22
443E
4422
47E2
84A2
84A2
7822
2FDC
1000
0180
0240
0240
0480
0900
0600
ENDCHAR
STARTCHAR gcommaaccent
ENCODING 291
SWIDTH 557 0
DWIDTH 16 0
BBX 15 27 0 -7
BITMAP
1C00
23FC
2084
2084
2C04
33FC
3A00
2600
221C
2422
2422
4422
7A22
443E
4422
47E2
84A2
84A2
7822
2FDC
1000
0180
0240
0240
0480
0900
0600
ENDCHAR
STARTCHAR Hcircumflex
ENCODING 292
SWIDTH 611 0
DWIDTH 17 0
BBX 16 27 1 0
BITMAP
0380
04C0
04C0
0920
1290
1290
0C60
7038
8C46
8842
4844
4844
8844
F874
884C
8844
8846
885D
88E1
F721
8A23
8A3C
89C4
8E44
8844
8444
7838
ENDCHAR
STARTCHAR hcircumflex
ENCODING 293
SWIDTH 611 0
DWIDTH 17 0
BBX 16 27 1 0
BITMAP
0380
04C0
04C0
0920
1290
1290
0C60
7038
8C46
8842
4844
4844
8844
F874
884C
8844
8846
885D
88E1
F721
8A23
8A3C
89C4
8E44
8844
8444
7838
ENDCHAR
STARTCHAR Hbar
ENCODING 294
SWIDTH 706 0
DWIDTH 20 0
BBX 19 20 1 0
BITMAP
1C0E00
221100
221100
621100
A3FFC0
A20820
BE0820
A2E220
631DC0
221180
221640
223840
3FC840
2288C0
228F00
22F100
231100
221100
422100
3C1E00
ENDCHAR
STARTCHAR hbar
ENCODING 295
SWIDTH 706 0
DWIDTH 20 0
BBX 19 20 1 0
BITMAP
1C0E00
221100
221100
621100
A3FFC0
A20820
BE0820
A2E220
631DC0
221180
221640
223840
3FC840
2288C0
228F00
22F100
231100
221100
422100
3C1E00
ENDCHAR
STARTCHAR Itilde
ENCODING 296
SWIDTH 266 0
DWIDTH 7 0
BBX 11 27 -1 0
BITMAP
3CC0
2520
4B20
9240
9980
A980
C700
1C00
2300
2200
1200
1200
2200
3E00
2200
2200
2200
2200
2200
3E00
2200
2200
2200
2200
2200
2100
1E00
ENDCHAR
STARTCHAR itilde
ENCODING 297
SWIDTH 266 0
DWIDTH 7 0
BBX 11 27 -1 0
BITMAP
3CC0
2520
4B20
9240
9980
A980
C700
1C00
2300
2200
1200
1200
2200
3E00
2200
2200
2200
2200
2200
3E00
2200
2200
2200
2200
2200
2100
1E00
ENDCHAR
STARTCHAR Imacron
ENCODING 298
SWIDTH 266 0
DWIDTH 7 0
BBX 8 24 0 0
BITMAP
7E
81
81
7E
38
46
44
24
24
44
7C
44
44
44
44
44
7C
44
44
44
44
44
42
3C
ENDCHAR
STARTCHAR imacron
ENCODING 299
SWIDTH 266 0
DWIDTH 7 0
BBX 8 24 0 0
BITMAP
7E
81
81
7E
38
46
44
24
24
44
7C
44
44
44
44
44
7C
44
44
44
44
44
42
3C
ENDCHAR
STARTCHAR Ibreve
ENCODING 300
SWIDTH 266 0
DWIDTH 7 0
BBX 10 27 -1 0
BITMAP
6180
9240
5240
5280
4D80
5180
3F00
1C00
2300
2200
1200
1200
2200
3E00
2200
2200
2200
2200
2200
3E00
2200
2200
2200
2200
2200
2100
1E00
ENDCHAR
STARTCHAR ibreve
ENCODING 301
SWIDTH 266 0
DWIDTH 7 0
BBX 10 27 -1 0
BITMAP
6180
9240
5240
5280
4D80
5180
3F00
1C00
2300
2200
1200
1200
2200
3E00
2200
2200
2200
2200
2200
3E00
2200
2200
2200
2200
2200
2100
1E00
ENDCHAR
STARTCHAR Iogonek
ENCODING 302
SWIDTH 266 0
DWIDTH 7 0
BBX 7 27 0 -7
BITMAP
38
46
44
24
24
44
7C
44
44
44
44
44
7C
44
44
44
44
44
42
3C
48
50
98
64
22
14
08
ENDCHAR
STARTCHAR iogonek
ENCODING 303
SWIDTH 266 0
DWIDTH 7 0
BBX 7 27 0 -7
BITMAP
38
46
44
24
24
44
7C
44
44
44
44
44
7C
44
44
44
44
44
42
3C
48
50
98
64
22
14
08
ENDCHAR
STARTCHAR Idotaccent
ENCODING 304
SWIDTH 266 0
DWIDTH 7 0
BBX 6 25 1 0
BITMAP
F8
48
48
70
00
70
8C
88
48
48
88
F8
88
88
88
88
88
F8
88
88
88
88
88
84
78
ENDCHAR
STARTCHAR dotlessi
ENCODING 305
SWIDTH 266 0
DWIDTH 7 0
BBX 6 20 1 0
BITMAP
70
8C
88
48
48
88
F8
88
88
88
88
88
F8
88
88
88
88
88
84
78
ENDCHAR
STARTCHAR IJ
ENCODING 306
SWIDTH 750 0
DWIDTH 21 0
BBX 19 21 1 -1
BITMAP
7001C0
8C0220
880220
480220
480220
880220
F80360
880220
880220
880220
89C220
8A2220
FA13E0
8B0A20
889620
88A620
884220
882120
841120
7811C0
000E00
ENDCHAR
STARTCHAR ij
ENCODING 307
SWIDTH 749 0
DWIDTH 21 0
BBX 19 21 1 -1
BITMAP
7001C0
8C0220
880220
480220
480220
880220
F80360
880220
880220
880220
89C220
8A2220
FA13E0
8B0A20
889620
88A620
884220
882120
841120
7811C0
000E00
ENDCHAR
STARTCHAR Jcircumflex
ENCODING 308
SWIDTH 484 0
DWIDTH 14 0
BBX 14 28 0 -1
BITMAP
00F0
0090
0128
0248
0264
0294
019C
0060
0198
0088
0090
0090
0090
01E8
0108
0110
0090
7090
9110
89E8
8508
4710
3910
1090
1050
0848
04F0
0300
ENDCHAR
STARTCHAR jcircumflex
ENCODING 309
SWIDTH 482 0
DWIDTH 14 0
BBX 14 28 0 -1
BITMAP
00F0
0090
0128
0248
0264
0294
019C
0060
0198
0088
0090
0090
0090
01E8
0108
0110
0090
7090
9110
89E8
8508
4710
3910
1090
1050
0848
04F0
0300
ENDCHAR
STARTCHAR Kcommaaccent
ENCODING 310
SWIDTH 541 0
DWIDTH 15 0
BBX 15 27 1 -7
BITMAP
7000
8C38
8824
4842
4886
8908
FA90
8A50
8C20
8840
88C0
8D20
FB20
8A50
8D90
8910
8888
8884
8888
7870
0000
0700
0500
0980
1200
1400
1C00
ENDCHAR
STARTCHAR kcommaaccent
ENCODING 311
SWIDTH 541 0
DWIDTH 15 0
BBX 15 27 1 -7
BITMAP
7000
8C38
8824
4842
4886
8908
FA90
8A50
8C20
8840
88C0
8D20
FB20
8A50
8D90
8910
8888
8884
8888
7870
0000
0700
0500
0980
1200
1400
1C00
ENDCHAR
STARTCHAR kgreenlandic
ENCODING 312
SWIDTH 541 0
DWIDTH 15 0
BBX 15 20 1 0
BITMAP
7000
8C38
8824
4842
4886
8908
FA90
8A50
8C20
8840
88C0
8D20
FB20
8A50
8D90
8910
8888
8884
8888
7870
ENDCHAR
STARTCHAR Lacute
ENCODING 313
SWIDTH 467 0
DWIDTH 13 0
BBX 13 26 1 0
BITMAP
0600
0900
0900
1200
2400
1800
7000
8C00
8800
4800
4800
8800
F800
8800
8800
8800
8800
8800
F800
8800
8800
8FF0
8A08
8A08
8408
7FF0
ENDCHAR
STARTCHAR lacute
ENCODING 314
SWIDTH 467 0
DWIDTH 13 0
BBX 13 26 1 0
BITMAP
0600
0900
0900
1200
2400
1800
7000
8C00
8800
4800
4800
8800
F800
8800
8800
8800
8800
8800
F800
8800
8800
8FF0
8A08
8A08
8408
7FF0
ENDCHAR
STARTCHAR Lcommaaccent
ENCODING 315
SWIDTH 467 0
DWIDTH 13 0
BBX 13 27 1 -7
BITMAP
7000
8C00
8800
4800
4800
8800
F800
8800
8800
8800
8800
8800
F800
8800
8800
8FF0
8A08
8A08
8408
7FF0
0000
0E00
0A00
1200
2400
2800
3800
ENDCHAR
STARTCHAR lcommaaccent
ENCODING 316
SWIDTH 467 0
DWIDTH 13 0
BBX 13 27 1 -7
BITMAP
7000
8C00
8800
4800
4800
8800
F800
8800
8800
8800
8800
8800
F800
8800
8800
8FF0
8A08
8A08
8408
7FF0
0000
0E00
0A00
1200
2400
2800
3800
ENDCHAR
STARTCHAR Lcaron
ENCODING 317
SWIDTH 467 0
DWIDTH 13 0
BBX 13 22 1 0
BITMAP
0040
00A0
7090
8D20
8A40
4A80
4980
8800
F800
8800
8800
8800
8800
8800
F800
8800
8800
8FF0
8A08
8A08
8408
7FF0
ENDCHAR
STARTCHAR lcaron
ENCODING 318
SWIDTH 467 0
DWIDTH 13 0
BBX 13 22 1 0
BITMAP
0040
00A0
7090
8D20
8A40
4A80
4980
8800
F800
8800
8800
8800
8800
8800
F800
8800
8800
8FF0
8A08
8A08
8408
7FF0
ENDCHAR
STARTCHAR Ldot
ENCODING 319
SWIDTH 611 0
DWIDTH 17 0
BBX 15 20 1 0
BITMAP
7000
8C00
8800
4800
4800
8800
F800
880C
8812
8812
8812
881E
F800
8800
8800
8FF0
8A08
8A08
8408
7FF0
ENDCHAR
STARTCHAR ldotaccent
ENCODING 320
SWIDTH 611 0
DWIDTH 17 0
BBX 15 20 1 0
BITMAP
7000
8C00
8800
4800
4800
8800
F800
880C
8812
8812
8812
881E
F800
8800
8800
8FF0
8A08
8A08
8408
7FF0
ENDCHAR
STARTCHAR Lslash
ENCODING 321
SWIDTH 505 0
DWIDTH 14 0
BBX 14 20 0 0
BITMAP
0C00
3300
2100
1200
1200
2200
3E00
2380
E240
A240
A240
A3C0
F900
2200
2200
23FC
2284
2284
2134
1FCC
ENDCHAR
STARTCHAR lslash
ENCODING 322
SWIDTH 505 0
DWIDTH 14 0
BBX 14 20 0 0
BITMAP
0C00
3300
2100
1200
1200
2200
3E00
2380
E240
A240
A240
A3C0
F900
2200
2200
23FC
2284
2284
2134
1FCC
ENDCHAR
STARTCHAR Nacute
ENCODING 323
SWIDTH 598 0
DWIDTH 17 0
BBX 15 26 1 0
BITMAP
0060
0090
0090
0120
0240
0180
301C
CC22
8A22
4A22
4A22
8922
FAFA
84C2
88A2
8864
8C64
8C22
FBFA
8A22
8914
8914
888C
888A
889A
F87C
ENDCHAR
STARTCHAR nacute
ENCODING 324
SWIDTH 598 0
DWIDTH 17 0
BBX 15 26 1 0
BITMAP
0060
0090
0090
0120
0240
0180
301C
CC22
8A22
4A22
4A22
8922
FAFA
84C2
88A2
8864
8C64
8C22
FBFA
8A22
8914
8914
888C
888A
889A
F87C
ENDCHAR
STARTCHAR Ncommaaccent
ENCODING 325
SWIDTH 598 0
DWIDTH 17 0
BBX 15 27 1 -7
BITMAP
301C
CC22
8A22
4A22
4A22
8922
FAFA
84C2
88A2
8864
8C64
8C22
FBFA
8A22
8914
8914
888C
888A
889A
F87C
0000
0300
0280
0480
0900
0A00
0E00
ENDCHAR
STARTCHAR ncommaaccent
ENCODING 326
SWIDTH 598 0
DWIDTH 17 0
BBX 15 27 1 -7
BITMAP
301C
CC22
8A22
4A22
4A22
8922
FAFA
84C2
88A2
8864
8C64
8C22
FBFA
8A22
8914
8914
888C
888A
889A
F87C
0000
0300
0280
0480
0900
0A00
0E00
ENDCHAR
STARTCHAR Ncaron
ENCODING 327
SWIDTH 598 0
DWIDTH 17 0
BBX 15 27 1 0
BITMAP
0E70
1290
0990
0520
04C0
04C0
0380
301C
CC22
8A22
4A22
4A22
8922
FAFA
84C2
88A2
8864
8C64
8C22
FBFA
8A22
8914
8914
888C
888A
889A
F87C
ENDCHAR
STARTCHAR ncaron
ENCODING 328
SWIDTH 598 0
DWIDTH 17 0
BBX 15 27 1 0
BITMAP
0E70
1290
0990
0520
04C0
04C0
0380
301C
CC22
8A22
4A22
4A22
8922
FAFA
84C2
88A2
8864
8C64
8C22
FBFA
8A22
8914
8914
888C
888A
889A
F87C
ENDCHAR
STARTCHAR napostrophe
ENCODING 329
SWIDTH 807 0
DWIDTH 23 0
BBX 22 20 0 0
BITMAP
10E030
2918CC
251444
491448
911448
A11248
61F6F4
011984
011188
011148
011888
011848
01F7F4
011444
011228
011228
011218
011118
011124
01F0F8
ENDCHAR
STARTCHAR Eng
ENCODING 330
SWIDTH 595 0
DWIDTH 17 0
BBX 15 27 1 -7
BITMAP
3000
CC3C
8A22
4A22
4A22
8924
FAA4
84A2
88FA
8842
8C44
8C24
FBE4
8A24
8912
891E
888C
888C
889C
F864
0074
03CA
3D0C
2088
20B8
23C0
1C00
ENDCHAR
STARTCHAR eng
ENCODING 331
SWIDTH 595 0
DWIDTH 17 0
BBX 15 27 1 -7
BITMAP
3000
CC3C
8A22
4A22
4A22
8924
FAA4
84A2
88FA
8842
8C44
8C24
FBE4
8A24
8912
891E
888C
888C
889C
F864
0074
03CA
3D0C
2088
20B8
23C0
1C00
ENDCHAR
STARTCHAR Omacron
ENCODING 332
SWIDTH 612 0
DWIDTH 17 0
BBX 17 25 0 -1
BITMAP
03F000
040800
040800
03F000
1C0000
23FE00
208600
208200
2C0600
33FE00
3A1100
263D00
221100
241100
241100
441100
7A1F00
441100
441700
47FB00
848100
844180
783F00
2FC400
100000
ENDCHAR
STARTCHAR omacron
ENCODING 333
SWIDTH 612 0
DWIDTH 17 0
BBX 17 25 0 -1
BITMAP
03F000
040800
040800
03F000
1C0000
23FE00
208600
208200
2C0600
33FE00
3A1100
263D00
221100
241100
241100
441100
7A1F00
441100
441700
47FB00
848100
844180
783F00
2FC400
100000
ENDCHAR
STARTCHAR Obreve
ENCODING 334
SWIDTH 612 0
DWIDTH 17 0
BBX 17 28 0 -1
BITMAP
061000
092C00
092800
056800
059000
051000
03E000
1C0000
23FE00
208600
208200
2C0600
33FE00
3A1100
263D00
221100
241100
241100
441100
7A1F00
441100
441700
47FB00
848100
844180
783F00
2FC400
100000
ENDCHAR
STARTCHAR obreve
ENCODING 335
SWIDTH 612 0
DWIDTH 17 0
BBX 17 28 0 -1
BITMAP
061000
092C00
092800
056800
059000
051000
03E000
1C0000
23FE00
208600
208200
2C0600
33FE00
3A1100
263D00
221100
241100
241100
441100
7A1F00
441100
441700
47FB00
848100
844180
783F00
2FC400
100000
ENDCHAR
STARTCHAR Ohungarumlaut
ENCODING 336
SWIDTH 612 0
DWIDTH 17 0
BBX 17 27 0 -1
BITMAP
00C600
012900
013200
025400
04A400
031800
1C0000
23FE00
208600
208200
2C0600
33FE00
3A1100
263D00
221100
241100
241100
441100
7A1F00
441100
441700
47FB00
848100
844180
783F00
2FC400
100000
ENDCHAR
STARTCHAR ohungarumlaut
ENCODING 337
SWIDTH 612 0
DWIDTH 17 0
BBX 17 27 0 -1
BITMAP
00C600
012900
013200
025400
04A400
031800
1C0000
23FE00
208600
208200
2C0600
33FE00
3A1100
263D00
221100
241100
241100
441100
7A1F00
441100
441700
47FB00
848100
844180
783F00
2FC400
100000
ENDCHAR
STARTCHAR OE
ENCODING 338
SWIDTH 831 0
DWIDTH 23 0
BBX 23 21 0 -1
BITMAP
1C0C04
23FDFA
208542
208542
2C051A
33FDE6
3A1B00
261100
2211F0
241108
241108
441108
7A1FF0
441100
4419C0
47E57C
848542
848542
783D32
2FDECC
100000
ENDCHAR
STARTCHAR oe
ENCODING 339
SWIDTH 831 0
DWIDTH 23 0
BBX 23 21 0 -1
BITMAP
1C0C04
23FDFA
208542
208542
2C051A
33FDE6
3A1B00
261100
2211F0
241108
241108
441108
7A1FF0
441100
4419C0
47E57C
848542
848542
783D32
2FDECC
100000
ENDCHAR
STARTCHAR Racute
ENCODING 340
SWIDTH 532 0
DWIDTH 15 0
BBX 14 27 1 -1
BITMAP
00E0
00A0
0120
0240
0280
0380
3800
4700
C0C0
C0B8
7904
8E04
89C4
F8B8
8B08
8F90
8A60
8C40
8A20
FB10
8D70
8988
8888
8844
8844
8858
7020
ENDCHAR
STARTCHAR racute
ENCODING 341
SWIDTH 532 0
DWIDTH 15 0
BBX 14 27 1 -1
BITMAP
00E0
00A0
0120
0240
0280
0380
3800
4700
C0C0
C0B8
7904
8E04
89C4
F8B8
8B08
8F90
8A60
8C40
8A20
FB10
8D70
8988
8888
8844
8844
8858
7020
ENDCHAR
STARTCHAR Rcommaaccent
ENCODING 342
SWIDTH 532 0
DWIDTH 15 0
BBX 14 27 1 -7
BITMAP
3800
4700
C0C0
C0B8
7904
8E04
89C4
F8B8
8B08
8F90
8A60
8C40
8A20
FB10
8D70
8988
8888
8844
8844
8858
7020
0600
0500
0900
1200
1400
1C00
ENDCHAR
STARTCHAR rcommaaccent
ENCODING 343
SWIDTH 532 0
DWIDTH 15 0
BBX 14 27 1 -7
BITMAP
3800
4700
C0C0
C0B8
7904
8E04
89C4
F8B8
8B08
8F90
8A60
8C40
8A20
FB10
8D70
8988
8888
8844
8844
8858
7020
0600
0500
0900
1200
1400
1C00
ENDCHAR
STARTCHAR Rcaron
ENCODING 344
SWIDTH 532 0
DWIDTH 15 0
BBX 14 28 1 -1
BITMAP
1CE0
2520
1320
0A40
0980
0980
0700
3800
4700
C0C0
C0B8
7904
8E04
89C4
F8B8
8B08
8F90
8A60
8C40
8A20
FB10
8D70
8988
8888
8844
8844
8858
7020
ENDCHAR
STARTCHAR rcaron
ENCODING 345
SWIDTH 532 0
DWIDTH 15 0
BBX 14 28 1 -1
BITMAP
1CE0
2520
1320
0A40
0980
0980
0700
3800
4700
C0C0
C0B8
7904
8E04
89C4
F8B8
8B08
8F90
8A60
8C40
8A20
FB10
8D70
8988
8888
8844
8844
8858
7020
ENDCHAR
STARTCHAR Sacute
ENCODING 346
SWIDTH 442 0
DWIDTH 12 0
BBX 12 28 0 -1
BITMAP
0180
0240
0240
0480
0900
0600
0000
03E0
7E10
7A10
4A10
87E0
4400
2200
2500
2900
1100
0880
0840
05C0
0620
0220
7F10
8510
8510
81E0
BE00
4000
ENDCHAR
STARTCHAR sacute
ENCODING 347
SWIDTH 442 0
DWIDTH 12 0
BBX 12 28 0 -1
BITMAP
0180
0240
0240
0480
0900
0600
0000
03E0
7E10
7A10
4A10
87E0
4400
2200
2500
2900
1100
0880
0840
05C0
0620
0220
7F10
8510
8510
81E0
BE00
4000
ENDCHAR
STARTCHAR Scircumflex
ENCODING 348
SWIDTH 442 0
DWIDTH 12 0
BBX 12 29 0 -1
BITMAP
0700
0900
1180
1240
2640
2920
19C0
0000
03E0
7E10
7A10
4A10
87E0
4400
2200
2500
2900
1100
0880
0840
05C0
0620
0220
7F10
8510
8510
81E0
BE00
4000
ENDCHAR
STARTCHAR scircumflex
ENCODING 349
SWIDTH 442 0
DWIDTH 12 0
BBX 12 29 0 -1
BITMAP
0700
0900
1180
1240
2640
2920
19C0
0000
03E0
7E10
7A10
4A10
87E0
4400
2200
2500
2900
1100
0880
0840
05C0
0620
0220
7F10
8510
8510
81E0
BE00
4000
ENDCHAR
STARTCHAR Scedilla
ENCODING 350
SWIDTH 442 0
DWIDTH 12 0
BBX 12 26 0 -6
BITMAP
03E0
7E10
7A10
4A10
87E0
4400
2200
2500
2900
1100
0880
0840
05C0
0620
0220
7F10
8510
8510
81E0
BE80
4280
0280
1E80
2180
1700
1800
ENDCHAR
STARTCHAR scedilla
ENCODING 351
SWIDTH 442 0
DWIDTH 12 0
BBX 12 26 0 -6
BITMAP
03E0
7E10
7A10
4A10
87E0
4400
2200
2500
2900
1100
0880
0840
05C0
0620
0220
7F10
8510
8510
81E0
BE80
4280
0280
1E80
2180
1700
1800
ENDCHAR
STARTCHAR Scaron
ENCODING 352
SWIDTH 442 0
DWIDTH 12 0
BBX 12 28 0 -1
BITMAP
39C0
2520
2640
1280
1280
0900
0F00
03E0
7E10
7A10
4A10
87E0
4400
2200
2500
2900
1100
0880
0840
05C0
0620
0220
7F10
8510
8510
81E0
BE00
4000
ENDCHAR
STARTCHAR scaron
ENCODING 353
SWIDTH 442 0
DWIDTH 12 0
BBX 12 28 0 -1
BITMAP
39C0
2520
2640
1280
1280
0900
0F00
03E0
7E10
7A10
4A10
87E0
4400
2200
2500
2900
1100
0880
0840
05C0
0620
0220
7F10
8510
8510
81E0
BE00
4000
ENDCHAR
STARTCHAR Tcommaaccent
ENCODING 354
SWIDTH 453 0
DWIDTH 13 0
BBX 13 27 0 -7
BITMAP
7F30
82C8
8208
8208
BFF8
4880
0880
0F80
0880
0880
0880
0880
0880
0F80
0880
0880
0880
0880
1080
0F00
0000
0E00
0900
1200
1400
2400
1800
ENDCHAR
STARTCHAR tcommaaccent
ENCODING 355
SWIDTH 453 0
DWIDTH 13 0
BBX 13 27 0 -7
BITMAP
7F30
82C8
8208
8208
BFF8
4880
0880
0F80
0880
0880
0880
0880
0880
0F80
0880
0880
0880
0880
1080
0F00
0000
0E00
0900
1200
1400
2400
1800
ENDCHAR
STARTCHAR Tcaron
ENCODING 356
SWIDTH 453 0
DWIDTH 13 0
BBX 13 27 0 0
BITMAP
1CE0
2520
1220
1240
0980
0980
0700
7F30
82C8
8208
8208
BFF8
4880
0880
0F80
0880
0880
0880
0880
0880
0F80
0880
0880
0880
0880
1080
0F00
ENDCHAR
STARTCHAR tcaron
ENCODING 357
SWIDTH 453 0
DWIDTH 13 0
BBX 13 27 0 0
BITMAP
1CE0
2520
1220
1240
0980
0980
0700
7F30
82C8
8208
8208
BFF8
4880
0880
0F80
0880
0880
0880
0880
0880
0F80
0880
0880
0880
0880
1080
0F00
ENDCHAR
STARTCHAR Tbar
ENCODING 358
SWIDTH 455 0
DWIDTH 13 0
BBX 13 20 0 0
BITMAP
4010
B6E8
8208
8208
9568
6A90
0880
0E80
0980
3FC0
4020
4020
4020
3FC0
0880
0880
0880
0880
1080
0F80
ENDCHAR
STARTCHAR tbar
ENCODING 359
SWIDTH 455 0
DWIDTH 13 0
BBX 13 20 0 0
BITMAP
4010
B6E8
8208
8208
9568
6A90
0880
0E80
0980
3FC0
4020
4020
4020
3FC0
0880
0880
0880
0880
1080
0F80
ENDCHAR
STARTCHAR Utilde
ENCODING 360
SWIDTH 583 0
DWIDTH 16 0
BBX 16 28 0 -1
BITMAP
03CE
0252
04B2
0924
0994
0A88
0678
1C0C
2222
2222
2222
2222
2222
3A3E
4222
4422
4422
4422
4422
7C3D
4422
441E
47E6
8486
8485
78BD
27DE
1800
ENDCHAR
STARTCHAR utilde
ENCODING 361
SWIDTH 583 0
DWIDTH 16 0
BBX 16 28 0 -1
BITMAP
03CE
0252
04B2
0924
0994
0A88
0678
1C0C
2222
2222
2222
2222
2222
3A3E
4222
4422
4422
4422
4422
7C3D
4422
441E
47E6
8486
8485
78BD
27DE
1800
ENDCHAR
STARTCHAR Umacron
ENCODING 362
SWIDTH 583 0
DWIDTH 16 0
BBX 16 25 0 -1
BITMAP
03E0
0410
0410
07F0
1C0C
2222
2222
2222
2222
2222
3A3E
4222
4422
4422
4422
4422
7C3D
4422
441E
47E6
8486
8485
78BD
27DE
1800
ENDCHAR
STARTCHAR umacron
ENCODING 363
SWIDTH 583 0
DWIDTH 16 0
BBX 16 25 0 -1
BITMAP
03E0
0410
0410
07F0
1C0C
2222
2222
2222
2222
2222
3A3E
4222
4422
4422
4422
4422
7C3D
4422
441E
47E6
8486
8485
78BD
27DE
1800
ENDCHAR
STARTCHAR Ubreve
ENCODING 364
SWIDTH 583 0
DWIDTH 16 0
BBX 16 29 0 -1
BITMAP
0C30
1248
0A48
0A50
09B0
0E30
03E0
0000
1C0C
2222
2222
2222
2222
2222
3A3E
4222
4422
4422
4422
4422
7C3D
4422
441E
47E6
8486
8485
78BD
27DE
1800
ENDCHAR
STARTCHAR ubreve
ENCODING 365
SWIDTH 583 0
DWIDTH 16 0
BBX 16 29 0 -1
BITMAP
0C30
1248
0A48
0A50
09B0
0E30
03E0
0000
1C0C
2222
2222
2222
2222
2222
3A3E
4222
4422
4422
4422
4422
7C3D
4422
441E
47E6
8486
8485
78BD
27DE
1800
ENDCHAR
STARTCHAR Uring
ENCODING 366
SWIDTH 583 0
DWIDTH 16 0
BBX 16 29 0 -1
BITMAP
03E0
02A0
0490
0950
09C8
0630
0810
07E0
1C0C
2222
2222
2222
2222
2222
3A3E
4222
4422
4422
4422
4422
7C3D
4422
441E
47E6
8486
8485
78BD
27DE
1800
ENDCHAR
STARTCHAR uring
ENCODING 367
SWIDTH 583 0
DWIDTH 16 0
BBX 16 29 0 -1
BITMAP
03E0
02A0
0490
0950
09C8
0630
0810
07E0
1C0C
2222
2222
2222
2222
2222
3A3E
4222
4422
4422
4422
4422
7C3D
4422
441E
47E6
8486
8485
78BD
27DE
1800
ENDCHAR
STARTCHAR Uhungarumlaut
ENCODING 368
SWIDTH 583 0
DWIDTH 16 0
BBX 16 28 0 -1
BITMAP
018C
0252
0264
04A8
0948
0630
0000
1C0C
2222
2222
2222
2222
2222
3A3E
4222
4422
4422
4422
4422
7C3D
4422
441E
47E6
8486
8485
78BD
27DE
1800
ENDCHAR
STARTCHAR uhungarumlaut
ENCODING 369
SWIDTH 583 0
DWIDTH 16 0
BBX 16 28 0 -1
BITMAP
018C
0252
0264
04A8
0948
0630
0000
1C0C
2222
2222
2222
2222
2222
3A3E
4222
4422
4422
4422
4422
7C3D
4422
441E
47E6
8486
8485
78BD
27DE
1800
ENDCHAR
STARTCHAR Uogonek
ENCODING 370
SWIDTH 583 0
DWIDTH 16 0
BBX 16 27 0 -7
BITMAP
1C0C
2222
2222
2222
2222
2222
3A3E
4222
4422
4422
4422
4422
7C3D
4422
441E
47E6
8486
8485
78BD
27DE
1824
0024
004C
003A
0011
0009
0006
ENDCHAR
STARTCHAR uogonek
ENCODING 371
SWIDTH 583 0
DWIDTH 16 0
BBX 16 27 0 -7
BITMAP
1C0C
2222
2222
2222
2222
2222
3A3E
4222
4422
4422
4422
4422
7C3D
4422
441E
47E6
8486
8485
78BD
27DE
1824
0024
004C
003A
0011
0009
0006
ENDCHAR
STARTCHAR Wcircumflex
ENCODING 372
SWIDTH 735 0
DWIDTH 21 0
BBX 20 27 0 -1
BITMAP
007000
009000
011800
012400
026400
025200
019C00
7801E0
887110
888910
888910
448920
454620
7DFFE0
454620
432620
232220
222240
23FE40
1E25A0
123440
125440
145440
0C5880
0C4880
0B8C80
040300
ENDCHAR
STARTCHAR wcircumflex
ENCODING 373
SWIDTH 735 0
DWIDTH 21 0
BBX 20 27 0 -1
BITMAP
007000
009000
011800
012400
026400
025200
019C00
7801E0
887110
888910
888910
448920
454620
7DFFE0
454620
432620
232220
222240
23FE40
1E25A0
123440
125440
145440
0C5880
0C4880
0B8C80
040300
ENDCHAR
STARTCHAR Ycircumflex
ENCODING 374
SWIDTH 484 0
DWIDTH 14 0
BBX 15 27 -1 0
BITMAP
0380
0240
04C0
0920
1190
1290
0C60
0000
383C
4822
8422
4442
2344
27E4
1898
1088
0910
0510
0220
03A0
0460
0440
0440
0880
1080
0C80
0300
ENDCHAR
STARTCHAR ycircumflex
ENCODING 375
SWIDTH 484 0
DWIDTH 14 0
BBX 15 27 -1 0
BITMAP
0380
0240
04C0
0920
1190
1290
0C60
0000
383C
4822
8422
4442
2344
27E4
1898
1088
0910
0510
0220
03A0
0460
0440
0440
0880
1080
0C80
0300
ENDCHAR
STARTCHAR Ydieresis
ENCODING 376
SWIDTH 484 0
DWIDTH 14 0
BBX 15 24 -1 0
BITMAP
1FF8
1288
1290
0E70
0000
383C
4822
8422
4442
2344
27E4
1898
1088
0910
0510
0220
03A0
0460
0440
0440
0880
1080
0C80
0300
ENDCHAR
STARTCHAR Zacute
ENCODING 377
SWIDTH 458 0
DWIDTH 13 0
BBX 13 26 0 0
BITMAP
00C0
0120
0220
0240
0480
0300
2020
5FD0
4210
4218
4DD8
3230
0620
05A0
0440
0840
0880
1100
2D00
2300
4200
47F0
8610
8A10
48D0
3720
ENDCHAR
STARTCHAR zacute
ENCODING 378
SWIDTH 458 0
DWIDTH 13 0
BBX 13 26 0 0
BITMAP
00C0
0120
0220
0240
0480
0300
2020
5FD0
4210
4218
4DD8
3230
0620
05A0
0440
0840
0880
1100
2D00
2300
4200
47F0
8610
8A10
48D0
3720
ENDCHAR
STARTCHAR Zdotaccent
ENCODING 379
SWIDTH 458 0
DWIDTH 13 0
BBX 13 25 0 0
BITMAP
0F80
0880
0480
0700
0000
2020
5FD0
4210
4218
4DD8
3230
0620
05A0
0440
0840
0880
1100
2D00
2300
4200
47F0
8610
8A10
48D0
3720
ENDCHAR
STARTCHAR zdotaccent
ENCODING 380
SWIDTH 458 0
DWIDTH 13 0
BBX 13 25 0 0
BITMAP
0F80
0880
0480
0700
0000
2020
5FD0
4210
4218
4DD8
3230
0620
05A0
0440
0840
0880
1100
2D00
2300
4200
47F0
8610
8A10
48D0
3720
ENDCHAR
STARTCHAR Zcaron
ENCODING 381
SWIDTH 458 0
DWIDTH 13 0
BBX 13 27 0 0
BITMAP
1DC0
2520
1220
1240
0980
0980
0700
2020
5FD0
4210
4218
4DD8
3230
0620
05A0
0440
0840
0880
1100
2D00
2300
4200
47F0
8610
8A10
48D0
3720
ENDCHAR
STARTCHAR zcaron
ENCODING 382
SWIDTH 458 0
DWIDTH 13 0
BBX 13 27 0 0
BITMAP
1DC0
2520
1220
1240
0980
0980
0700
2020
5FD0
4210
4218
4DD8
3230
0620
05A0
0440
0840
0880
1100
2D00
2300
4200
47F0
8610
8A10
48D0
3720
ENDCHAR
STARTCHAR AEacute
ENCODING 508
SWIDTH 797 0
DWIDTH 22 0
BBX 23 27 -1 0
BITMAP
000300
000480
000480
000900
001200
000C00
000000
000C06
00F1FA
009142
008942
01111A
0211E6
023B00
05B100
0431F0
045108
089108
109108
1D7FF0
131100
2111C0
43F17C
441142
841142
442132
381ECC
ENDCHAR
STARTCHAR aeacute
ENCODING 509
SWIDTH 797 0
DWIDTH 22 0
BBX 23 27 -1 0
BITMAP
000300
000480
000480
000900
001200
000C00
000000
000C06
00F1FA
009142
008942
01111A
0211E6
023B00
05B100
0431F0
045108
089108
109108
1D7FF0
131100
2111C0
43F17C
441142
841142
442132
381ECC
ENDCHAR
STARTCHAR Oslashacute
ENCODING 510
SWIDTH 612 0
DWIDTH 17 0
BBX 17 27 0 -1
BITMAP
003000
004800
004800
009000
012000
00C000
1C0000
23FE00
209100
209100
2C2200
33C600
3AC500
26A900
231900
251100
263100
423100
7E5F00
455100
489F00
50F300
918100
A24180
423F00
23C400
1C0000
ENDCHAR
STARTCHAR oslashacute
ENCODING 511
SWIDTH 612 0
DWIDTH 17 0
BBX 17 27 0 -1
BITMAP
003000
004800
004800
009000
012000
00C000
1C0000
23FE00
209100
209100
2C2200
33C600
3AC500
26A900
231900
251100
263100
423100
7E5F00
455100
489F00
50F300
918100
A24180
423F00
23C400
1C0000
ENDCHAR
STARTCHAR dotlessj
ENCODING 567
SWIDTH 482 0
DWIDTH 14 0
BBX 13 21 0 -1
BITMAP
0060
0198
0088
0090
0090
0090
01E8
0108
0110
0090
7090
9110
89E8
8508
4710
3910
1090
1050
0848
04F0
0300
ENDCHAR
STARTCHAR circumflex
ENCODING 710
SWIDTH 308 0
DWIDTH 9 0
BBX 9 7 0 21
BITMAP
1C00
2400
2600
4900
9900
9480
6700
ENDCHAR
STARTCHAR caron
ENCODING 711
SWIDTH 310 0
DWIDTH 9 0
BBX 9 7 0 21
BITMAP
E700
9480
5900
4A00
2600
2400
1C00
ENDCHAR
STARTCHAR breve
ENCODING 728
SWIDTH 333 0
DWIDTH 9 0
BBX 9 7 0 21
BITMAP
6300
9280
9480
9680
5900
5100
3E00
ENDCHAR
STARTCHAR dotaccent
ENCODING 729
SWIDTH 166 0
DWIDTH 5 0
BBX 5 4 0 21
BITMAP
F8
90
90
70
ENDCHAR
STARTCHAR ring
ENCODING 730
SWIDTH 309 0
DWIDTH 9 0
BBX 9 8 0 21
BITMAP
3E00
2A00
4900
9500
9C80
6300
4100
7E00
ENDCHAR
STARTCHAR ogonek
ENCODING 731
SWIDTH 226 0
DWIDTH 6 0
BBX 6 9 0 -7
BITMAP
30
48
48
90
90
6C
24
14
08
ENDCHAR
STARTCHAR tilde
ENCODING 732
SWIDTH 410 0
DWIDTH 11 0
BBX 11 7 0 21
BITMAP
1CE0
24A0
4720
4940
9940
A480
6780
ENDCHAR
STARTCHAR hungarumlaut
ENCODING 733
SWIDTH 361 0
DWIDTH 10 0
BBX 10 6 0 21
BITMAP
1980
2640
4A40
5480
9900
6600
ENDCHAR
STARTCHAR uni0312
ENCODING 786
SWIDTH 202 0
DWIDTH 6 0
BBX 6 7 0 13
BITMAP
10
28
24
48
90
A0
60
ENDCHAR
STARTCHAR uni0315
ENCODING 789
SWIDTH 202 0
DWIDTH 6 0
BBX 6 7 0 13
BITMAP
10
28
24
48
90
A0
60
ENDCHAR
STARTCHAR uni0326
ENCODING 806
SWIDTH 201 0
DWIDTH 6 0
BBX 6 6 0 -7
BITMAP
18
24
48
50
90
60
ENDCHAR
STARTCHAR Wgrave
ENCODING 7808
SWIDTH 735 0
DWIDTH 21 0
BBX 20 26 0 -1
BITMAP
00E000
012000
012000
009000
009000
006000
7801E0
887110
888910
888910
448920
454620
7DFFE0
454620
432620
232220
222240
23FE40
1E25A0
123440
125440
145440
0C5880
0C4880
0B8C80
040300
ENDCHAR
STARTCHAR wgrave
ENCODING 7809
SWIDTH 735 0
DWIDTH 21 0
BBX 20 26 0 -1
BITMAP
00E000
012000
012000
009000
009000
006000
7801E0
887110
888910
888910
448920
454620
7DFFE0
454620
432620
232220
222240
23FE40
1E25A0
123440
125440
145440
0C5880
0C4880
0B8C80
040300
ENDCHAR
STARTCHAR Wacute
ENCODING 7810
SWIDTH 735 0
DWIDTH 21 0
BBX 20 26 0 -1
BITMAP
000C00
001200
001200
002400
004800
003000
7801E0
887110
888910
888910
448920
454620
7DFFE0
454620
432620
232220
222240
23FE40
1E25A0
123440
125440
145440
0C5880
0C4880
0B8C80
040300
ENDCHAR
STARTCHAR wacute
ENCODING 7811
SWIDTH 735 0
DWIDTH 21 0
BBX 20 26 0 -1
BITMAP
000C00
001200
001200
002400
004800
003000
7801E0
887110
888910
888910
448920
454620
7DFFE0
454620
432620
232220
222240
23FE40
1E25A0
123440
125440
145440
0C5880
0C4880
0B8C80
040300
ENDCHAR
STARTCHAR Wdieresis
ENCODING 7812
SWIDTH 735 0
DWIDTH 21 0
BBX 20 24 0 -1
BITMAP
07DE00
025200
025200
039E00
7801E0
887110
888910
888910
448920
454620
7DFFE0
454620
432620
232220
222240
23FE40
1E25A0
123440
125440
145440
0C5880
0C4880
0B8C80
040300
ENDCHAR
STARTCHAR wdieresis
ENCODING 7813
SWIDTH 735 0
DWIDTH 21 0
BBX 20 24 0 -1
BITMAP
07DE00
025200
025200
039E00
7801E0
887110
888910
888910
448920
454620
7DFFE0
454620
432620
232220
222240
23FE40
1E25A0
123440
125440
145440
0C5880
0C4880
0B8C80
040300
ENDCHAR
STARTCHAR Ygrave
ENCODING 7922
SWIDTH 484 0
DWIDTH 14 0
BBX 15 26 -1 0
BITMAP
0700
0900
0480
0480
0240
0180
0000
383C
4822
8422
4442
2344
27E4
1898
1088
0910
0510
0220
03A0
0460
0440
0440
0880
1080
0C80
0300
ENDCHAR
STARTCHAR ygrave
ENCODING 7923
SWIDTH 484 0
DWIDTH 14 0
BBX 15 26 -1 0
BITMAP
0700
0900
0480
0480
0240
0180
0000
383C
4822
8422
4442
2344
27E4
1898
1088
0910
0510
0220
03A0
0460
0440
0440
0880
1080
0C80
0300
ENDCHAR
STARTCHAR endash
ENCODING 8211
SWIDTH 591 0
DWIDTH 17 0
BBX 15 5 1 7
BITMAP
FFFC
8442
8442
8442
FFFC
ENDCHAR
STARTCHAR emdash
ENCODING 8212
SWIDTH 726 0
DWIDTH 20 0
BBX 19 5 1 7
BITMAP
FFFC40
820BA0
820820
820820
FFFFC0
ENDCHAR
STARTCHAR quoteleft
ENCODING 8216
SWIDTH 291 0
DWIDTH 8 0
BBX 8 12 0 9
BITMAP
0C
12
11
11
22
3A
42
44
84
88
C8
38
ENDCHAR
STARTCHAR quoteright
ENCODING 8217
SWIDTH 291 0
DWIDTH 8 0
BBX 8 12 0 9
BITMAP
0C
12
11
11
22
3A
42
44
84
88
C8
38
ENDCHAR
STARTCHAR quotesinglbase
ENCODING 8218
SWIDTH 228 0
DWIDTH 6 0
BBX 7 8 -1 -4
BITMAP
18
14
22
42
84
88
50
30
ENDCHAR
STARTCHAR quotedblleft
ENCODING 8220
SWIDTH 532 0
DWIDTH 15 0
BBX 15 12 0 9
BITMAP
0C18
1224
1122
1144
2244
3AF4
4284
4488
8510
8910
C910
3860
ENDCHAR
STARTCHAR quotedblright
ENCODING 8221
SWIDTH 532 0
DWIDTH 15 0
BBX 15 12 0 9
BITMAP
0C18
1224
1122
1144
2244
3AF4
4284
4488
8510
8910
C910
3860
ENDCHAR
STARTCHAR quotedblbase
ENCODING 8222
SWIDTH 448 0
DWIDTH 13 0
BBX 13 8 -1 -4
BITMAP
1860
1458
2288
4288
8710
8A20
5120
30C0
ENDCHAR
STARTCHAR dagger
ENCODING 8224
SWIDTH 453 0
DWIDTH 13 0
BBX 11 22 1 -1
BITMAP
1F00
1100
1100
1100
F1E0
9120
9120
9F20
F1E0
1100
1100
1100
1100
1900
1300
1100
1100
1100
1100
1100
2100
1E00
ENDCHAR
STARTCHAR daggerdbl
ENCODING 8225
SWIDTH 462 0
DWIDTH 13 0
BBX 11 22 1 -1
BITMAP
1F00
1100
1100
1100
F1E0
9120
9120
9F20
F1E0
1100
1100
1100
1100
5D00
B3E0
9120
9120
91A0
7140
1100
2100
1F00
ENDCHAR
STARTCHAR bullet
ENCODING 8226
SWIDTH 275 0
DWIDTH 8 0
BBX 4 5 2 8
BITMAP
60
90
90
90
F0
ENDCHAR
STARTCHAR ellipsis
ENCODING 8230
SWIDTH 605 0
DWIDTH 17 0
BBX 15 4 1 0
BITMAP
F39E
9452
9452
F7DE
ENDCHAR
STARTCHAR perthousand
ENCODING 8240
SWIDTH 1249 0
DWIDTH 35 0
BBX 33 19 1 0
BITMAP
FE0C000000
E112000000
9192000000
AE92000000
A492000000
A4A4000000
A4BC000000
DCA4000000
84A5F87E00
7F25846100
004A469180
006A7A9F80
005A529280
004A529280
0092529280
0093F2FC80
009312C480
00D30EC380
0020FC3F00
ENDCHAR
STARTCHAR guilsinglleft
ENCODING 8249
SWIDTH 359 0
DWIDTH 10 0
BBX 8 12 1 4
BITMAP
06
09
31
C1
86
88
D8
A4
C3
21
11
0E
ENDCHAR
STARTCHAR guilsinglright
ENCODING 8250
SWIDTH 359 0
DWIDTH 10 0
BBX 8 12 1 4
BITMAP
60
98
84
83
61
11
19
27
C3
84
88
70
ENDCHAR
STARTCHAR fraction
ENCODING 8260
SWIDTH 266 0
DWIDTH 7 0
BBX 8 18 0 1
BITMAP
0C
13
12
12
12
22
3A
24
24
24
44
78
48
48
48
90
90
F0
ENDCHAR
STARTCHAR Euro
ENCODING 8364
SWIDTH 690 0
DWIDTH 19 0
BBX 17 21 1 -1
BITMAP
038000
047F80
041080
041080
058080
167F80
2F4000
44C000
444000
3C8000
448000
A88000
8F4000
888000
F88300
08FC80
109080
109080
0F0380
05F800
020000
ENDCHAR
STARTCHAR partialdiff
ENCODING 8706
SWIDTH 519 0
DWIDTH 15 0
BBX 15 21 0 -1
BITMAP
01C0
0220
0420
0220
0220
0220
0170
0290
0710
0910
1090
3088
C9F8
9288
AC88
C3C4
4044
3042
0C44
0378
0080
ENDCHAR
STARTCHAR minus
ENCODING 8722
SWIDTH 467 0
DWIDTH 13 0
BBX 11 5 1 7
BITMAP
7FE0
8220
8220
8220
FFE0
ENDCHAR
STARTCHAR fi
ENCODING 64257
SWIDTH 741 0
DWIDTH 21 0
BBX 19 20 1 0
BITMAP
7011C0
8FF220
890A20
490A20
48F240
8F1220
F807A0
880420
8FC240
884240
884240
884220
FF87A0
880420
880240
880240
880440
880420
880420
7803C0
ENDCHAR
STARTCHAR fl
ENCODING 64258
SWIDTH 942 0
DWIDTH 26 0
BBX 26 20 1 0
BITMAP
7011C000
8FF22000
890A2000
490A2000
48F24000
8F122000
F807A000
88042000
8FC24000
88424000
88424000
88422000
FF87A000
88042000
88024000
88027F80
88045040
88043040
88042040
7803FF80
ENDCHAR
STARTCHAR .notdef
ENCODING -1
SWIDTH 200 0
DWIDTH 6 0
BBX 1 1 0 0
BITMAP
00
ENDCHAR
STARTCHAR .null
ENCODING -1
SWIDTH 0 0
DWIDTH 0 0
BBX 1 1 0 0
BITMAP
00
ENDCHAR
STARTCHAR nonmarkingreturn
ENCODING -1
SWIDTH 200 0
DWIDTH 6 0
BBX 1 1 0 0
BITMAP
00
ENDCHAR
ENDFONT
